<svg width="38" height="39" viewBox="0 0 38 39" fill="none" xmlns="http://www.w3.org/2000/svg">
<rect opacity="0.05" y="0.483521" width="37.8791" height="37.8791" rx="6" fill="#252D31"/>
<g clip-path="url(#clip0_2462_1860)">
<path d="M18.9394 32.0494C15.5667 32.0494 12.396 30.736 10.0111 28.3513C7.62638 25.9664 6.31299 22.7957 6.31299 19.4231C6.31299 16.0504 7.62638 12.8797 10.0111 10.4948C12.396 8.11008 15.5667 6.79669 18.9394 6.79669C22.312 6.79669 25.4827 8.11008 27.8676 10.4948C30.2523 12.8797 31.5657 16.0504 31.5657 19.4231C31.5657 22.7957 30.2523 25.9664 27.8676 28.3513C25.4827 30.736 22.312 32.0494 18.9394 32.0494ZM18.9394 8.76956C13.065 8.76956 8.28586 13.5487 8.28586 19.4231C8.28586 25.2974 13.065 30.0766 18.9394 30.0766C24.8137 30.0766 29.5929 25.2974 29.5929 19.4231C29.5929 13.5487 24.8137 8.76956 18.9394 8.76956ZM18.89 20.3602C16.2792 20.3602 14.1551 18.2361 14.1551 15.6253C14.1551 13.0144 16.2792 10.8904 18.89 10.8904C21.5009 10.8904 23.6249 13.0144 23.6249 15.6253C23.6249 18.2361 21.5009 20.3602 18.89 20.3602ZM18.89 12.8633C17.367 12.8633 16.128 14.1023 16.128 15.6253C16.128 17.1482 17.367 18.3873 18.89 18.3873C20.413 18.3873 21.6521 17.1482 21.6521 15.6253C21.6521 14.1023 20.413 12.8633 18.89 12.8633ZM25.1397 26.1048C25.5612 25.7596 25.623 25.1381 25.2778 24.7166C23.8829 23.0137 21.8219 22.0371 19.6232 22.0371H18.4528C16.2541 22.0371 14.1931 23.0137 12.7983 24.7166C12.4531 25.1381 12.5149 25.7596 12.9364 26.1048C13.3578 26.4501 13.9793 26.3882 14.3246 25.9668C15.3431 24.7232 16.8478 24.01 18.4528 24.01H19.6232C21.2282 24.01 22.7329 24.7232 23.7515 25.9667C23.9466 26.2048 24.2297 26.3281 24.5152 26.3281C24.7351 26.3281 24.9564 26.255 25.1397 26.1048Z" fill="#252D31"/>
</g>
<defs>
<clipPath id="clip0_2462_1860">
<rect width="25.2527" height="25.2527" fill="white" transform="translate(6.31299 6.79669)"/>
</clipPath>
</defs>
</svg>
