<svg width="37" height="37" viewBox="0 0 37 37" fill="none" xmlns="http://www.w3.org/2000/svg">
<rect opacity="0.05" width="37" height="37" rx="6" fill="#7E0FC6"/>
<path d="M28.8906 10.5625H9.10938C7.94627 10.5625 7 11.5088 7 12.6719V25.3281C7 26.4912 7.94627 27.4375 9.10938 27.4375H28.8906C30.0537 27.4375 31 26.4912 31 25.3281V12.6719C31 11.5088 30.0537 10.5625 28.8906 10.5625ZM14.0312 26.0312H9.10938C8.72167 26.0312 8.40625 25.7158 8.40625 25.3281V17.5938H9.92758C10.2784 18.6412 11.3539 19.2722 12.444 19.0586L11.3368 20.7194C11.1214 21.0425 11.2088 21.479 11.5319 21.6944C11.8549 21.9098 12.2915 21.8225 12.5069 21.4994L14.0312 19.2129V26.0312ZM11.2188 16.8896C11.2188 16.2495 11.9307 15.8665 12.4649 16.2227L13.4668 16.8906L12.4649 17.5585C11.9325 17.9135 11.2188 17.5346 11.2188 16.8896ZM14.0312 15.5768L13.245 15.0526C12.031 14.2433 10.3873 14.8151 9.92781 16.1875H8.40625V12.6718C8.40625 12.2842 8.72167 11.9688 9.10938 11.9688H14.0312V15.5768ZM29.5938 25.3282C29.5938 25.7158 29.2783 26.0312 28.8906 26.0312H15.4375V19.2129L16.9618 21.4994C17.1775 21.8229 17.6142 21.9096 17.9369 21.6945C18.26 21.479 18.3473 21.0425 18.1319 20.7194L17.0247 19.0586C18.1099 19.2712 19.1885 18.6462 19.5409 17.5938H29.5938V25.3282ZM16.002 16.8906L17.0038 16.2227C17.5363 15.8677 18.25 16.2467 18.25 16.8916C18.25 17.5328 17.5371 17.9141 17.0038 17.5585L16.002 16.8906ZM29.5938 16.1875H19.5412C19.0816 14.8153 17.4378 14.2433 16.2238 15.0527L15.4375 15.5768V11.9688H28.8906C29.2783 11.9688 29.5938 12.2842 29.5938 12.6719V16.1875Z" fill="#7E0FC6"/>
<path d="M27.4844 20.4062H21.7656C21.3773 20.4062 21.0625 20.7211 21.0625 21.1094C21.0625 21.4977 21.3773 21.8125 21.7656 21.8125H27.4844C27.8727 21.8125 28.1875 21.4977 28.1875 21.1094C28.1875 20.7211 27.8727 20.4062 27.4844 20.4062Z" fill="#7E0FC6"/>
<path d="M27.4844 23.2188H21.7656C21.3773 23.2188 21.0625 23.5336 21.0625 23.9219C21.0625 24.3102 21.3773 24.625 21.7656 24.625H27.4844C27.8727 24.625 28.1875 24.3102 28.1875 23.9219C28.1875 23.5336 27.8727 23.2188 27.4844 23.2188Z" fill="#7E0FC6"/>
</svg>
