<svg width="38" height="39" viewBox="0 0 38 39" fill="none" xmlns="http://www.w3.org/2000/svg">
<rect opacity="0.05" y="0.483521" width="37.8791" height="37.8791" rx="6" fill="#7E0FC6"/>
<g clip-path="url(#clip0_4260_5415)">
<path fill-rule="evenodd" clip-rule="evenodd" d="M23.6036 7.84888C27.7464 7.84888 31.1162 11.2187 31.1162 15.3627V24.3535C31.1162 28.4963 27.7464 31.8674 23.6036 31.8674H12.7751C8.63232 31.8674 5.26123 28.4963 5.26123 24.3535V15.3627C5.26123 11.2187 8.63232 7.84888 12.7751 7.84888H23.6036ZM23.6036 9.72797H12.7751C9.66832 9.72797 7.14032 12.256 7.14032 15.3627V24.3535C7.14032 27.4603 9.66832 29.9883 12.7751 29.9883H23.6036C26.7104 29.9883 29.2372 27.4603 29.2372 24.3535V24.0028L25.1058 24.0035C22.7294 24.0035 20.7952 22.0706 20.7939 19.6954C20.7939 17.3177 22.7281 15.3835 25.1058 15.3823L29.2372 15.3815V15.3627C29.2372 12.256 26.7104 9.72797 23.6036 9.72797ZM29.2372 17.2606L25.1058 17.2614C23.7641 17.2626 22.673 18.3537 22.673 19.6942C22.673 21.0333 23.7654 22.1244 25.1058 22.1244L29.2372 22.1237V17.2606ZM25.679 18.6769C26.1977 18.6769 26.6186 19.0979 26.6186 19.6165C26.6186 20.1351 26.1977 20.556 25.679 20.556H25.2882C24.7696 20.556 24.3486 20.1351 24.3486 19.6165C24.3486 19.0979 24.7696 18.6769 25.2882 18.6769H25.679ZM18.6466 13.5339C19.1652 13.5339 19.5862 13.9548 19.5862 14.4734C19.5862 14.992 19.1652 15.413 18.6466 15.413H11.8831C11.3645 15.413 10.9436 14.992 10.9436 14.4734C10.9436 13.9548 11.3645 13.5339 11.8831 13.5339H18.6466Z" fill="#7E0FC6"/>
</g>
<defs>
<clipPath id="clip0_4260_5415">
<rect width="26.3049" height="25.2527" fill="white" transform="translate(5.26123 6.79669)"/>
</clipPath>
</defs>
</svg>
