<svg width="37" height="37" viewBox="0 0 37 37" fill="none" xmlns="http://www.w3.org/2000/svg">
<rect opacity="0.05" width="37" height="37" rx="6" fill="#7E0FC6"/>
<g clip-path="url(#clip0_4260_5412)">
<path d="M30.8996 14.8726L28.7404 11.274V9.20936C28.7404 7.97636 27.7394 7 26.5311 7H11.4685C10.2566 7 9.25918 7.97964 9.25918 9.20936V11.274L7.10002 14.8726C7.0284 14.992 6.99521 15.1275 7.00056 15.2619V17.118C7.00056 18.1583 7.61818 19.057 8.50604 19.4667V30.2969C8.50604 30.6852 8.82085 31 9.20917 31H28.7904C29.1788 31 29.4936 30.6852 29.4936 30.2969V19.4671C30.3818 19.0575 30.9998 18.1585 30.9998 17.118V15.2344C30.9998 15.1069 30.9652 14.9819 30.8996 14.8726ZM29.0548 14.5313H27.0071L26.0633 12.1719H27.6391L29.0548 14.5313ZM10.6654 9.20941C10.6654 8.76175 11.0291 8.40625 11.4685 8.40625H26.531C26.9684 8.40625 27.3341 8.75983 27.3341 9.20941V10.7656H10.6654L10.6654 9.20941ZM23.4685 15.9375H25.8279V17.118C25.7634 18.6816 23.5329 18.682 23.4685 17.118V15.9375ZM23.3418 14.5313L22.87 12.1719H24.5488L25.4926 14.5313H23.3418ZM19.7033 15.9375H22.0623V17.118C21.9976 18.6819 19.7677 18.6817 19.7033 17.118V15.9375ZM19.7029 14.5313V12.1719H21.4359L21.9077 14.5313H19.7029ZM18.2971 15.9375V17.118C18.2325 18.6817 16.002 18.682 15.9377 17.118V15.9375H18.2971ZM16.0918 14.5313L16.5637 12.1719H18.2967V14.5313H16.0918ZM12.5071 14.5313L13.4508 12.1719H15.1296L14.6577 14.5313H12.5071ZM14.5314 15.9375V17.118C14.4668 18.6818 12.2368 18.6818 12.1724 17.118V15.9375H14.5314ZM10.3604 12.1719H11.9363L10.9926 14.5313H8.94479L10.3604 12.1719ZM8.40681 17.118V15.9375H10.7662V17.118C10.7017 18.6816 8.47117 18.682 8.40681 17.118ZM25.0748 29.5938H21.2092V22.7156H25.0748V29.5938ZM28.0873 29.5938H26.481V22.0125C26.481 21.6242 26.1662 21.3094 25.7779 21.3094H20.5061C20.1178 21.3094 19.803 21.6242 19.803 22.0125V29.5938H9.91234V19.6818C10.5227 19.6044 11.0675 19.3141 11.4691 18.8873C12.4463 19.9675 14.2576 19.9667 15.2344 18.8874C16.2116 19.9676 18.0231 19.9666 19 18.8873C19.9771 19.9675 21.7884 19.9667 22.7653 18.8874C23.7425 19.9676 25.554 19.9665 26.5309 18.8873C26.9325 19.3142 27.4771 19.6046 28.0874 19.6818V29.5938H28.0873ZM29.5936 17.118C29.529 18.6816 27.2986 18.682 27.2342 17.118V15.9375H29.5936V17.118Z" fill="#7E0FC6"/>
<path d="M17.4936 21.3094H12.2217C11.8334 21.3094 11.5186 21.6242 11.5186 22.0125V27.2844C11.5186 27.6727 11.8334 27.9875 12.2217 27.9875H17.4936C17.8819 27.9875 18.1967 27.6727 18.1967 27.2844V22.0125C18.1967 21.6242 17.8819 21.3094 17.4936 21.3094ZM16.7904 26.5812H12.9248V22.7156H16.7904V26.5812Z" fill="#7E0FC6"/>
</g>
<defs>
<clipPath id="clip0_4260_5412">
<rect width="24" height="24" fill="white" transform="translate(7 7)"/>
</clipPath>
</defs>
</svg>
