<svg width="38" height="39" viewBox="0 0 38 39" fill="none" xmlns="http://www.w3.org/2000/svg">
<rect opacity="0.05" y="0.513733" width="37.8791" height="37.8791" rx="6" fill="#7E0FC6"/>
<g clip-path="url(#clip0_4260_5414)">
<path d="M24.4884 12.338L24.5116 12.5162L24.2446 12.5715L24.209 12.951H24.5289L24.9543 12.9101L25.174 12.649L24.9405 12.5581L24.8127 12.4111L24.6207 12.1001L24.5289 11.6603L24.1681 11.7339L24.0669 11.8889V12.0636L24.2406 12.1825L24.4884 12.338Z" fill="#7E0FC6"/>
<path d="M24.1809 12.4841L24.2002 12.2462L23.9884 12.1549L23.6923 12.2235L23.4727 12.5759V12.8044H23.7288L24.1809 12.4841Z" fill="#7E0FC6"/>
<path d="M18.0851 13.4944L18.02 13.6622H17.7046V13.8251H17.7796C17.7796 13.8251 17.7841 13.8597 17.7905 13.9051L17.984 13.8888L18.1049 13.8138L18.1365 13.6622L18.2929 13.6489L18.3546 13.5216L18.211 13.4919L18.0851 13.4944Z" fill="#7E0FC6"/>
<path d="M17.2721 13.7901L17.2598 13.9495L17.4883 13.9302L17.512 13.7703L17.3748 13.6622L17.2721 13.7901Z" fill="#7E0FC6"/>
<path d="M30.997 18.8759C30.9936 18.5249 30.9758 18.1765 30.9427 17.8334C30.8317 16.6898 30.5583 15.5936 30.1486 14.566C30.118 14.4895 30.0899 14.412 30.0573 14.3365C29.5114 13.0468 28.7449 11.8726 27.8066 10.8592C27.7449 10.7931 27.6822 10.728 27.6195 10.6638C27.4423 10.4797 27.2602 10.3 27.0717 10.1278C24.9384 8.18556 22.1053 7 18.9998 7C15.868 7 13.0147 8.20679 10.8755 10.1786C10.377 10.6381 9.91899 11.1396 9.5034 11.6766C7.93581 13.7042 7 16.2441 7 18.9998C7 25.6171 12.3834 31 19.0002 31C23.6546 31 27.6955 28.3347 29.6846 24.4513C30.1101 23.6211 30.4413 22.7361 30.6644 21.8087C30.7211 21.5732 30.77 21.3368 30.8124 21.0974C30.9334 20.4158 30.9995 19.7149 30.9995 18.9998C31 18.9583 30.9975 18.9173 30.997 18.8759ZM28.7384 14.0798L28.808 14.0018C28.8994 14.179 28.9847 14.3592 29.0662 14.5418L28.9527 14.5374L28.7384 14.567V14.0798ZM27.0045 11.9861L27.0065 11.4501C27.195 11.65 27.3767 11.8558 27.5504 12.069L27.3342 12.3908L26.5786 12.3839L26.5312 12.2264L27.0045 11.9861ZM12.529 10.6539V10.6337H12.7694L12.7901 10.5513H13.1835V10.723L13.0705 10.8741H12.5285L12.529 10.6539ZM12.913 11.1894C12.913 11.1894 13.1534 11.1485 13.1741 11.1485C13.1948 11.1485 13.1741 11.3884 13.1741 11.3884L12.6322 11.4224L12.529 11.299L12.913 11.1894ZM29.503 15.9529H28.6249L28.0899 15.5546L27.5267 15.6094V15.9529H27.3485L27.1561 15.8157L26.1808 15.5684V14.9367L24.9448 15.0329L24.5618 15.2387H24.0712L23.8308 15.2145L23.2351 15.5452V16.1676L22.0175 17.0462L22.1186 17.4213H22.3654L22.3008 17.7787L22.127 17.8423L22.1177 18.7762L23.17 19.9746H23.628L23.6556 19.9015H24.4789L24.7163 19.6819H25.1832L25.4394 19.9385L26.1353 20.0106L26.043 20.936L26.8155 22.2998L26.4088 23.0772L26.4364 23.4434L26.7568 23.7627V24.6433L27.1773 25.2089V25.9404H27.5405C25.5189 28.4226 22.4419 30.0124 18.9993 30.0124C12.9273 30.0129 7.98715 25.0722 7.98715 18.9998C7.98715 17.4712 8.30106 16.0141 8.8662 14.6899V14.3463L9.26007 13.8681C9.39679 13.6099 9.54338 13.3582 9.69985 13.1129L9.71761 13.3128L9.26007 13.8681C9.11842 14.1356 8.98663 14.409 8.86669 14.6899V15.3167L9.32424 15.5368V16.408L9.76302 17.1568L10.1199 17.2115L10.1658 16.9549L9.74476 16.3053L9.66233 15.6741H9.90912L10.0133 16.3236L10.6218 17.2115L10.4649 17.4983L10.8518 18.0901L11.8128 18.328V18.1725L12.1973 18.2273L12.1608 18.5017L12.4629 18.557L12.9293 18.6844L13.5882 19.4351L14.4298 19.4988L14.5122 20.1853L13.9362 20.5881L13.909 21.2011L13.8266 21.5762L14.6598 22.6191L14.7234 22.9765C14.7234 22.9765 15.0255 23.0584 15.0625 23.0584C15.099 23.0584 15.7397 23.5436 15.7397 23.5436V25.4285L15.9682 25.4927L15.8128 26.3624L16.1972 26.8752L16.1262 27.737L16.6341 28.6299L17.2861 29.1994L17.9415 29.2113L18.0057 29.0005L17.524 28.5948L17.5516 28.3934L17.638 28.1467L17.6562 27.8949L17.3305 27.8851L17.1661 27.6787L17.4366 27.4186L17.4731 27.2222L17.1711 27.1358L17.1888 26.9532L17.6192 26.888L18.2737 26.5736L18.4933 26.1709L19.1799 25.2923L19.0239 24.6053L19.2347 24.2395L19.866 24.2588L20.2909 23.9222L20.4282 22.5964L20.8995 21.9977L20.9819 21.6132L20.552 21.4755L20.2682 21.0101L19.2984 21.0002L18.5294 20.707L18.4929 20.1587L18.2362 19.71L17.5408 19.6996L17.139 19.0689L16.7821 18.8946L16.7639 19.0871L16.1143 19.1256L15.8764 18.7944L15.1987 18.6567L14.6405 19.3018L13.762 19.1528L13.6983 18.1627L13.0571 18.0531L13.3143 17.5674L13.2407 17.2885L12.3982 17.8517L11.8681 17.787L11.6791 17.3729L11.7946 16.946L12.0868 16.4075L12.7595 16.0669L14.0586 16.0664L14.0551 16.4628L14.5221 16.68L14.485 16.0028L14.8217 15.6642L15.5008 15.218L15.5472 14.9041L16.2244 14.1993L16.9445 13.8005L16.8808 13.7481L17.3685 13.2891L17.5472 13.3365L17.6291 13.4392L17.8142 13.2338L17.8596 13.2136L17.6567 13.185L17.4509 13.1164V12.9189L17.56 12.8296H17.8004L17.9104 12.878L18.0057 13.0705L18.1222 13.0527V13.0359L18.1557 13.0473L18.4933 12.9954L18.5412 12.8306L18.7337 12.879V13.0576L18.555 13.1805H18.5555L18.5817 13.3765L19.1932 13.565C19.1932 13.565 19.1937 13.5675 19.1947 13.5724L19.3354 13.5606L19.3448 13.2955L18.8601 13.0749L18.8324 12.9476L19.2347 12.8103L19.2525 12.4254L18.8319 12.1692L18.8043 11.5201L18.2278 11.8035H18.0175L18.0728 11.3094L17.288 11.1243L16.9633 11.3696V12.1179L16.3794 12.303L16.1454 12.7906L15.8917 12.8316V12.2077L15.3429 12.1317L15.0684 11.953L14.9579 11.5488L15.9396 10.9743L16.4198 10.8282L16.4682 11.151L16.7357 11.1371L16.7565 10.9747L17.0363 10.9348L17.0413 10.878L16.9208 10.8282L16.8932 10.6564L17.2372 10.6273L17.445 10.4111L17.4563 10.3953L17.4588 10.3963L17.522 10.3311L18.2451 10.2398L18.5649 10.5113L17.7263 10.958L18.7934 11.2097L18.9316 10.8528H19.3981L19.5629 10.5419L19.2332 10.4595V10.0661L18.1992 9.60804L17.4855 9.69047L17.0827 9.90122L17.1104 10.4136L16.6893 10.3494L16.6247 10.0661L17.0279 9.69985L16.296 9.66332L16.0857 9.72699L15.9944 9.97378L16.2688 10.0202L16.214 10.2946L15.7476 10.3222L15.6746 10.5049L14.9979 10.5236C14.9979 10.5236 14.9791 10.1396 14.952 10.1396C14.9248 10.1396 15.4826 10.1302 15.4826 10.1302L15.8858 9.73637L15.6657 9.6263L15.373 9.9106L14.8873 9.88296L14.5946 9.48021H13.9722L13.3227 9.96539H13.9179L13.9722 10.1396L13.8177 10.2832L14.4766 10.3015L14.5773 10.5394L13.8355 10.5118L13.7995 10.3287L13.333 10.228L13.0858 10.0908L12.5305 10.0952C14.3483 8.77094 16.5837 7.98715 18.9998 7.98715C21.7845 7.98715 24.3289 9.02809 26.2701 10.7383L26.1393 10.9723L25.6314 11.1712L25.4172 11.4037L25.4666 11.6746L25.7286 11.7112L25.8866 12.106L26.3387 11.9239L26.4132 12.452H26.277L25.9058 12.3972L25.4942 12.4663L25.0959 13.029L24.5263 13.1183L24.4439 13.606L24.6842 13.6627L24.6146 13.9762L24.049 13.8626L23.5303 13.9762L23.4202 14.2649L23.51 14.871L23.8146 15.0137L24.3254 15.0107L24.6704 14.9796L24.7755 14.7052L25.3145 14.0048L25.6694 14.0773L26.0189 13.7615L26.084 14.0082L26.9438 14.5882L26.8387 14.7294L26.4512 14.7086L26.6003 14.9199L26.8387 14.9722L27.118 14.8557L27.1121 14.5191L27.236 14.4569L27.1363 14.3513L26.5628 14.0314L26.4117 13.6065H26.8885L27.041 13.7575L27.4517 14.1114L27.469 14.5393L27.8944 14.9924L28.0529 14.3715L28.3475 14.2106L28.4028 14.7185L28.6906 15.0344L29.2646 15.0245C29.3757 15.3103 29.4754 15.601 29.5627 15.8976L29.503 15.9529ZM13.5453 12.452L13.8335 12.3148L14.0941 12.377L14.0043 12.7269L13.723 12.8163L13.5453 12.452ZM15.0749 13.2758V13.5023H14.4164L14.1696 13.4337L14.2313 13.2758L14.5477 13.145H14.9801V13.2758H15.0749ZM15.3779 13.5917V13.8113L15.2131 13.9174L15.0077 13.9554C15.0077 13.9554 15.0077 13.6262 15.0077 13.5917H15.3779ZM15.1923 13.5023V13.2412L15.4189 13.4475L15.1923 13.5023ZM15.2955 14.0305V14.2442L15.138 14.4021H14.7881L14.8429 14.1622L15.0082 14.1479L15.0423 14.0655L15.2955 14.0305ZM14.4238 13.5917H14.7876L14.3212 14.2437L14.1287 14.1405L14.1701 13.8661L14.4238 13.5917ZM15.9134 13.9554V14.1687H15.5635L15.4677 14.0305V13.832H15.4954L15.9134 13.9554ZM15.5901 13.6623L15.6899 13.5576L15.8582 13.6623L15.7234 13.7733L15.5901 13.6623ZM29.6817 16.5087L29.7162 16.4682C29.7305 16.5304 29.7458 16.5926 29.7597 16.6558L29.6817 16.5087Z" fill="#7E0FC6"/>
<path d="M8.8667 14.3463V14.6898C8.98664 14.4095 9.11892 14.1361 9.26057 13.868L8.8667 14.3463Z" fill="#7E0FC6"/>
</g>
<defs>
<clipPath id="clip0_4260_5414">
<rect width="24" height="24" fill="white" transform="translate(7 7)"/>
</clipPath>
</defs>
</svg>
