<svg width="38" height="39" viewBox="0 0 38 39" fill="none" xmlns="http://www.w3.org/2000/svg">
<rect opacity="0.05" y="0.513733" width="37.8791" height="37.8791" rx="6" fill="#7E0FC6"/>
<g clip-path="url(#clip0_4260_5409)">
<path d="M28.1875 19.9375H22.75C21.1992 19.9375 19.9375 21.1992 19.9375 22.75V28.1875C19.9375 29.7383 21.1992 31 22.75 31H28.1875C29.7383 31 31 29.7383 31 28.1875V22.75C31 21.1992 29.7383 19.9375 28.1875 19.9375ZM29.125 28.1875C29.125 28.7044 28.7044 29.125 28.1875 29.125H22.75C22.2331 29.125 21.8125 28.7044 21.8125 28.1875V22.75C21.8125 22.2331 22.2331 21.8125 22.75 21.8125H28.1875C28.7044 21.8125 29.125 22.2331 29.125 22.75V28.1875ZM15.25 19.9375H9.8125C8.26169 19.9375 7 21.1992 7 22.75V28.1875C7 29.7383 8.26169 31 9.8125 31H15.25C16.8008 31 18.0625 29.7383 18.0625 28.1875V22.75C18.0625 21.1992 16.8008 19.9375 15.25 19.9375ZM16.1875 28.1875C16.1875 28.7044 15.7669 29.125 15.25 29.125H9.8125C9.29556 29.125 8.875 28.7044 8.875 28.1875V22.75C8.875 22.2331 9.29556 21.8125 9.8125 21.8125H15.25C15.7669 21.8125 16.1875 22.2331 16.1875 22.75V28.1875ZM15.25 7H9.8125C8.26169 7 7 8.26169 7 9.8125V15.25C7 16.8008 8.26169 18.0625 9.8125 18.0625H15.25C16.8008 18.0625 18.0625 16.8008 18.0625 15.25V9.8125C18.0625 8.26169 16.8008 7 15.25 7ZM16.1875 15.25C16.1875 15.7669 15.7669 16.1875 15.25 16.1875H9.8125C9.29556 16.1875 8.875 15.7669 8.875 15.25V9.8125C8.875 9.29556 9.29556 8.875 9.8125 8.875H15.25C15.7669 8.875 16.1875 9.29556 16.1875 9.8125V15.25ZM28.1875 7H22.75C21.1992 7 19.9375 8.26169 19.9375 9.8125V15.25C19.9375 16.8008 21.1992 18.0625 22.75 18.0625H28.1875C29.7383 18.0625 31 16.8008 31 15.25V9.8125C31 8.26169 29.7383 7 28.1875 7ZM29.125 15.25C29.125 15.7669 28.7044 16.1875 28.1875 16.1875H22.75C22.2331 16.1875 21.8125 15.7669 21.8125 15.25V9.8125C21.8125 9.29556 22.2331 8.875 22.75 8.875H28.1875C28.7044 8.875 29.125 9.29556 29.125 9.8125V15.25Z" fill="#7E0FC6"/>
</g>
<defs>
<clipPath id="clip0_4260_5409">
<rect width="24" height="24" fill="white" transform="translate(7 7)"/>
</clipPath>
</defs>
</svg>
