<svg width="37" height="37" viewBox="0 0 37 37" fill="none" xmlns="http://www.w3.org/2000/svg">
<rect opacity="0.05" width="37" height="37" rx="6" fill="#7E0FC6"/>
<g clip-path="url(#clip0_4260_5407)">
<path d="M11.2308 20.3852C11.2308 19.8438 11.0198 19.3546 10.6831 18.9811C11.0198 18.6076 11.2308 18.1184 11.2308 17.577C11.2308 16.4157 10.2861 15.4709 9.1247 15.4709H7.01855C7.01855 16.0098 7.01855 22.8428 7.01855 22.4914H9.1247C10.2861 22.4914 11.2308 21.5466 11.2308 20.3852ZM8.42265 16.875H9.1247C9.51204 16.875 9.82674 17.1897 9.82674 17.577C9.82674 17.9644 9.51204 18.2791 9.1247 18.2791H8.42265V16.875ZM8.42265 19.6832H9.1247C9.51204 19.6832 9.82674 19.9979 9.82674 20.3852C9.82674 20.7726 9.51204 21.0873 9.1247 21.0873H8.42265V19.6832Z" fill="#7E0FC6"/>
<path d="M16.1635 17.577C16.1635 16.4157 15.2187 15.4709 14.0573 15.4709H11.9512C11.9512 16.0098 11.9512 22.8428 11.9512 22.4914H13.3553V19.6832H13.6234L15.1474 22.7313L16.4034 22.1033L15.0604 19.4173C15.7141 19.0595 16.1635 18.3733 16.1635 17.577ZM13.3553 18.2791V16.875H14.0573C14.4447 16.875 14.7594 17.1897 14.7594 17.577C14.7594 17.9644 14.4447 18.2791 14.0573 18.2791H13.3553Z" fill="#7E0FC6"/>
<path d="M21.078 22.4914C21.078 21.9586 21.078 17.3393 21.078 17.577C21.078 16.4157 20.1332 15.4709 18.9719 15.4709C17.8105 15.4709 16.8657 16.4157 16.8657 17.577C16.8657 18.7091 16.8657 22.6356 16.8657 22.4914H18.2698V19.6832H19.6739V22.4914H21.078ZM18.2698 18.2791V17.577C18.2698 17.1897 18.5845 16.875 18.9719 16.875C19.3592 16.875 19.6739 17.1897 19.6739 17.577V18.2791H18.2698Z" fill="#7E0FC6"/>
<path d="M28.8756 15.4709H26.6943V22.4914H28.8756C30.037 22.4914 30.9818 21.5466 30.9818 20.3852V17.577C30.9818 16.4156 30.037 15.4709 28.8756 15.4709ZM29.5777 20.3852C29.5777 20.7726 29.263 21.0873 28.8756 21.0873H28.0984V16.875H28.8756C29.263 16.875 29.5777 17.1897 29.5777 17.577V20.3852Z" fill="#7E0FC6"/>
<path d="M24.0395 22.4914H25.9921V15.4709H24.588V18.8947L23.7324 15.4709H21.7798V22.4914H23.1839V19.0675L24.0395 22.4914Z" fill="#7E0FC6"/>
<path d="M27.4517 13.1627L27.3932 12.7297C27.3932 12.7298 27.3929 12.7277 27.3913 12.7184C27.3901 12.7119 27.387 12.6948 27.3845 12.6788C27.3794 12.6471 27.3721 12.5939 27.3735 12.5297L27.3728 12.2416L27.3728 12.2314L27.3732 12.2213C27.3897 11.7884 27.2205 11.3583 26.9083 11.0471L26.9072 11.0459C26.5921 10.7299 26.1585 10.5634 25.7588 10.579L25.749 10.5794H25.7393H25.3999H25.3875L25.3875 10.5792C24.9371 10.5681 24.4643 10.3064 24.2652 9.79458L24.1587 9.55063L24.1521 9.53544L24.1465 9.51984C23.9955 9.1002 23.6697 8.77201 23.2879 8.62602L23.2766 8.62169L23.2655 8.61681C22.8808 8.44788 22.4222 8.449 22.0105 8.62835L22.0087 8.62915L21.7135 8.75631C21.7131 8.7565 21.7127 8.75669 21.7122 8.75688C21.2394 8.96288 20.7075 8.85159 20.3458 8.47196L20.1524 8.27994L20.1422 8.26975L20.1325 8.25899C19.8668 7.96261 19.4332 7.79443 18.9653 7.79443C18.4946 7.79443 18.0759 7.96427 17.8378 8.23081L17.8284 8.24133L17.8184 8.2513L17.5824 8.48738C17.2294 8.85933 16.6948 8.95721 16.2298 8.75598C16.2294 8.75578 16.2289 8.75558 16.2284 8.75537L15.9409 8.63236L15.9356 8.63011L15.9357 8.63008C15.5158 8.44474 15.0576 8.44903 14.7097 8.60311L14.6984 8.60811L14.6869 8.61255C14.2644 8.77526 13.945 9.10974 13.8132 9.47837L13.8082 9.49247L13.8023 9.50624L13.6669 9.82376C13.4857 10.2919 13.0205 10.5994 12.5164 10.5794L12.2323 10.58L12.2241 10.5801L12.2159 10.5798C11.7655 10.5662 11.349 10.7333 11.0372 11.0451L11.0366 11.0457C10.7204 11.3609 10.5541 11.7919 10.5697 12.1942L10.5701 12.2034L10.5701 12.2126L10.5708 12.5635L10.5708 12.5685L10.0708 12.5695C10.0715 12.5853 10.064 12.6025 10.0565 12.6198C10.0503 12.6342 10.0439 12.6487 10.0422 12.6627L27.4517 13.1627ZM27.4517 13.1627H27.8887H30.4818M27.4517 13.1627H30.4818M7.51855 13.1627H10.0422H10.4845L10.5318 12.7785L7.51855 13.1627ZM7.51855 13.1627V13.5668H7.52232H7.54497H7.56807H7.59163H7.61564H7.6401H7.66501H7.69037H7.71617H7.7424H7.76908H7.7962H7.82375H7.85173H7.88015H7.90899H7.93826H7.96795H7.99806H8.0286H8.05955H8.09091H8.12269H8.15488H8.18748H8.22049H8.2539H8.28771H8.32192H8.35653H8.39154H8.42694H8.46273H8.4989H8.53547H8.57242H8.60975H8.64747H8.68556H8.72403H8.76287H8.80208H8.84166H8.88161H8.92193H8.9626H9.00364H9.04504H9.08679H9.1289H9.17136H9.21417H9.25732H9.30083H9.34467H9.38886H9.43338H9.47824H9.52344H9.56897H9.61483H9.66102H9.70753H9.75436H9.80152H9.849H9.89679H9.9449H9.99332H10.0421H10.0911H10.1404H10.1901H10.24H10.2903H10.3408H10.3917H10.4428H10.4943H10.546H10.598H10.6503H10.7028H10.7557H10.8088H10.8622H10.9159H10.9698H11.0241H11.0785H11.1333H11.1883H11.2436H11.2991H11.3549H11.4109H11.4672H11.5238H11.5806H11.6376H11.6949H11.7524H11.8101H11.8681H11.9264H11.9848H12.0435H12.1024H12.1616H12.2209H12.2805H12.3403H12.4003H12.4606H12.521H12.5817H12.6425H12.7036H12.7649H12.8264H12.8881H12.9499H13.012H13.0743H13.1367H13.1993H13.2622H13.3252H13.3884H13.4517H13.5153H13.579H13.6429H13.707H13.7712H13.8356H13.9002H13.9649H14.0298H14.0949H14.1601H14.2254H14.2909H14.3566H14.4224H14.4883H14.5544H14.6207H14.687H14.7535H14.8202H14.887H14.9539H15.0209H15.088H15.1553H15.2227H15.2902H15.3579H15.4256H15.4935H15.5614H15.6295H15.6977H15.766H15.8344H15.9028H15.9714H16.0401H16.1089H16.1777H16.2467H16.3157H16.3848H16.454H16.5233H16.5927H16.6621H16.7316H16.8012H16.8708H16.9405H17.0103H17.0801H17.15H17.22H17.29H17.36H17.4301H17.5003H17.5705H17.6407H17.711H17.7814H17.8517H17.9221H17.9926H18.063H18.1335H18.2041H18.2746H18.3452H18.4158H18.4864H18.557H18.6277H18.6983H18.769H18.8396H18.9103H18.981H19.0517H19.1224H19.193H19.2637H19.3344H19.405H19.4756H19.5463H19.6169H19.6875H19.758H19.8286H19.8991H19.9696H20.04H20.1105H20.1809H20.2512H20.3215H20.3918H20.462H20.5322H20.6024H20.6725H20.7425H20.8125H20.8824H20.9523H21.0221H21.0919H21.1616H21.2312H21.3007H21.3702H21.4396H21.509H21.5782H21.6474H21.7165H21.7855H21.8544H21.9232H21.992H22.0606H22.1292H22.1976H22.266H22.3342H22.4024H22.4704H22.5384H22.6062H22.6739H22.7415H22.809H22.8763H22.9436H23.0107H23.0777H23.1445H23.2113H23.2779H23.3443H23.4107H23.4769H23.5429H23.6088H23.6746H23.7402H23.8056H23.871H23.9361H24.0011H24.066H24.1306H24.1952H24.2595H24.3237H24.3877H24.4516H24.5152H24.5787H24.642H24.7052H24.7681H24.8309H24.8935H24.9559H25.0181H25.0801H25.1419H25.2035H25.2649H25.3262H25.3872H25.448H25.5086H25.5689H25.6291H25.6891H25.7488H25.8083H25.8676H25.9267H25.9855H26.0442H26.1026H26.1607H26.2186H26.2763H26.3338H26.391H26.4479H26.5046H26.5611H26.6173H26.6733H26.729H26.7844H26.8396H26.8946H26.9492H27.0036H27.0578H27.1116H27.1652H27.2186H27.2716H27.3244H27.3769H27.4291H27.481H27.5326H27.5839H27.635H27.6857H27.7362H27.7864H27.8362H27.8858H27.935H27.984H28.0326H28.081H28.129H28.1767H28.224H28.2711H28.3178H28.3643H28.4103H28.4561H28.5015H28.5466H28.5914H28.6358H28.6799H28.7236H28.767H28.8101H28.8528H28.8951H28.9371H28.9788H29.0201H29.061H29.1016H29.1418H29.1816H29.2211H29.2602H29.2989H29.3373H29.3752H29.4128H29.4501H29.4869H29.5233H29.5594H29.5951H29.6303H29.6652H29.6997H29.7338H29.7675H29.8008H29.8337H29.8661H29.8982H29.9299H29.9611H29.9919H30.0223H30.0523H30.0819H30.111H30.1397H30.168H30.1959H30.2233H30.2503H30.2768H30.3029H30.3286H30.3538H30.3786H30.4029H30.4268H30.4502H30.4732H30.4818V13.1627M7.51855 13.1627H30.4818" stroke="#7E0FC6"/>
<path d="M30.4815 24.3954H30.4778H30.4551H30.432H30.4085H30.3845H30.36H30.3351H30.3097H30.2839H30.2577H30.231H30.2039H30.1764H30.1484H30.12H30.0911H30.0619H30.0322H30.0021H29.9715H29.9406H29.9092H29.8774H29.8452H29.8126H29.7796H29.7462H29.7124H29.6782H29.6436H29.6086H29.5732H29.5374H29.5012H29.4647H29.4277H29.3904H29.3527H29.3146H29.2761H29.2373H29.198H29.1585H29.1185H29.0782H29.0375H28.9965H28.9551H28.9133H28.8712H28.8288H28.786H28.7428H28.6993H28.6555H28.6113H28.5667H28.5219H28.4767H28.4312H28.3853H28.3391H28.2926H28.2458H28.1986H28.1511H28.1033H28.0552H28.0068H27.9581H27.909H27.8597H27.81H27.7601H27.7098H27.6593H27.6084H27.5573H27.5059H27.4542H27.4021H27.3499H27.2973H27.2444H27.1913H27.1379H27.0842H27.0303H26.9761H26.9216H26.8668H26.8118H26.7565H26.701H26.6452H26.5892H26.5329H26.4764H26.4196H26.3625H26.3053H26.2477H26.19H26.132H26.0738H26.0153H25.9566H25.8977H25.8386H25.7792H25.7196H25.6598H25.5998H25.5396H25.4791H25.4184H25.3576H25.2965H25.2352H25.1738H25.1121H25.0502H24.9881H24.9259H24.8634H24.8008H24.738H24.675H24.6118H24.5484H24.4848H24.4211H24.3572H24.2932H24.2289H24.1645H24.0999H24.0352H23.9703H23.9053H23.8401H23.7747H23.7092H23.6435H23.5777H23.5118H23.4457H23.3795H23.3131H23.2466H23.18H23.1132H23.0463H22.9793H22.9121H22.8448H22.7774H22.7099H22.6423H22.5745H22.5067H22.4387H22.3706H22.3024H22.2342H22.1658H22.0973H22.0287H21.96H21.8913H21.8224H21.7535H21.6844H21.6153H21.5461H21.4768H21.4075H21.3381H21.2686H21.199H21.1293H21.0596H20.9899H20.92H20.8501H20.7802H20.7102H20.6401H20.57H20.4999H20.4297H20.3594H20.2891H20.2188H20.1484H20.078H20.0076H19.9371H19.8666H19.7961H19.7255H19.655H19.5844H19.5138H19.4431H19.3725H19.3018H19.2312H19.1605H19.0898H19.0191H18.9485H18.8778H18.8071H18.7365H18.6658H18.5951H18.5245H18.4539H18.3833H18.3127H18.2421H18.1716H18.1011H18.0306H17.9601H17.8897H17.8193H17.7489H17.6786H17.6083H17.5381H17.4679H17.3978H17.3277H17.2576H17.1876H17.1177H17.0478H16.978H16.9083H16.8386H16.769H16.6994H16.6299H16.5605H16.4912H16.4219H16.3528H16.2837H16.2147H16.1457H16.0769H16.0082H15.9395H15.871H15.8025H15.7342H15.6659H15.5978H15.5297H15.4618H15.394H15.3262H15.2587H15.1912H15.1238H15.0566H14.9895H14.9225H14.8556H14.7889H14.7223H14.6558H14.5895H14.5233H14.4572H14.3913H14.3256H14.26H14.1945H14.1292H14.064H13.999H13.9342H13.8695H13.805H13.7406H13.6764H13.6124H13.5486H13.4849H13.4214H13.3581H13.295H13.232H13.1692H13.1067H13.0443H12.9821H12.9201H12.8582H12.7966H12.7352H12.674H12.613H12.5522H12.4916H12.4312H12.371H12.3111H12.2513H12.1918H12.1325H12.0734H12.0146H11.956H11.8976H11.8394H11.7815H11.7238H11.6664H11.6092H11.5522H11.4955H11.439H11.3828H11.3269H11.2712H11.2157H11.1605H11.1056H11.0509H10.9965H10.9424H10.8885H10.8349H10.7816H10.7285H10.6758H10.6233H10.5711H10.5192H10.4675H10.4162H10.3652H10.3144H10.2639H10.2138H10.1639H10.1144H10.0651H10.0162H9.96752H9.9192H9.87118H9.82348H9.7761H9.72904H9.68231H9.63589H9.5898H9.54405H9.49862H9.45352H9.40876H9.36434H9.32026H9.27652H9.23312H9.19007H9.14736H9.10501H9.06301H9.02137H8.98008H8.93915H8.89858H8.85838H8.81854H8.77907H8.73997H8.70124H8.66289H8.62491H8.58731H8.55009H8.51326H8.47681H8.44075H8.40508H8.3698H8.33491H8.30043H8.26634H8.23264H8.19936H8.16648H8.134H8.10193H8.07028H8.03904H8.00822H7.97781H7.94782H7.91826H7.88912H7.86041H7.83212H7.80427H7.77685H7.74987H7.72332H7.69722H7.67155H7.64634H7.62156H7.59724H7.57336H7.54994H7.52698H7.51838V24.7995H10.0547H10.4917L30.4815 24.3954ZM30.4815 24.3954V24.7995V24.3954ZM10.6821 27.2693C10.2722 26.8606 10.0487 26.2957 10.0706 25.7218L10.0699 25.4257L10.6821 27.2693ZM10.6821 27.2693C11.0921 27.6806 11.6474 27.8918 12.2042 27.8828L10.6821 27.2693ZM10.5521 25.2438C10.5506 25.235 10.5502 25.2327 10.5502 25.2326L27.8869 25.3424C27.8794 25.3597 27.8719 25.3769 27.8726 25.3928L27.3727 25.3938L27.3727 25.3988L27.3734 25.7496L27.3734 25.7588L27.3737 25.768C27.3894 26.1703 27.2231 26.6013 26.9068 26.9165L26.9056 26.9177C26.587 27.2374 26.1815 27.4083 25.741 27.383L25.7261 27.3822L25.7112 27.3822L25.4236 27.3829C24.9016 27.368 24.4573 27.6707 24.2765 28.1385L24.1411 28.456L24.1352 28.4698L24.1302 28.4839C23.9984 28.8525 23.679 29.187 23.2565 29.3497L23.2459 29.3538L23.2355 29.3583C22.884 29.5124 22.4248 29.5159 22.0074 29.332L22.0075 29.332L22.0025 29.3299L21.7143 29.2066C21.2485 29.0033 20.7135 29.1044 20.3613 29.4746L20.125 29.7109L20.115 29.7209L20.1056 29.7314C19.8532 30.0141 19.4344 30.2055 18.9716 30.2055C18.5142 30.2055 18.093 30.0178 17.8109 29.7032L17.8012 29.6925L17.791 29.6823L17.5976 29.4903C17.2357 29.1103 16.706 28.9998 16.2319 29.205C16.2317 29.2051 16.2314 29.2053 16.2311 29.2054L15.9347 29.3331L15.9324 29.3341C15.5213 29.5137 15.0623 29.5144 14.6781 29.3455L14.6669 29.3406L14.6555 29.3362C14.2737 29.1902 13.9479 28.862 13.7969 28.4424L13.7913 28.4268L13.7847 28.4116L13.678 28.1673C13.4807 27.6629 12.9765 27.3742 12.5377 27.3828H12.2042V27.3828L12.1961 27.3829C11.7696 27.3898 11.3467 27.2277 11.0363 26.9163L11.0351 26.9151C10.7229 26.6039 10.5537 26.1739 10.5702 25.741L10.5706 25.7308L10.5706 25.7207L10.5699 25.4325C10.5714 25.3683 10.564 25.3151 10.5589 25.2834C10.5568 25.27 10.5542 25.2557 10.5528 25.2476C10.5525 25.2461 10.5523 25.2448 10.5521 25.2438Z" stroke="#7E0FC6"/>
</g>
<defs>
<clipPath id="clip0_4260_5407">
<rect width="24" height="24" fill="white" transform="translate(7 7)"/>
</clipPath>
</defs>
</svg>
