<svg width="39" height="40" viewBox="0 0 39 40" fill="none" xmlns="http://www.w3.org/2000/svg">
<path d="M0.0117188 5.41492C0.0117188 2.65349 2.25029 0.414917 5.01172 0.414917H38.8416V39.2448H5.01172C2.2503 39.2448 0.0117188 37.0062 0.0117188 34.2448V5.41492Z" fill="#7E0FC6"/>
<g clip-path="url(#clip0_4137_4640)">
<path d="M26.1207 10.1421H25.3693V9.32326C25.3693 8.85543 25.0172 8.4762 24.5828 8.4762C24.1483 8.4762 23.7962 8.85543 23.7962 9.32326V10.1421H16.079V9.32326C16.079 8.85543 15.7269 8.4762 15.2925 8.4762C14.8581 8.4762 14.5059 8.85543 14.5059 9.32326V10.1421H13.7546C11.61 10.1421 9.86523 12.021 9.86523 14.3305V25.9724C9.86523 28.282 11.61 30.1609 13.7546 30.1609H26.1208C28.2653 30.1609 30.01 28.282 30.01 25.9724V14.3305C30.01 12.021 28.2653 10.1421 26.1207 10.1421ZM13.7546 11.8362H14.5059V13.488C14.5059 13.9558 14.8581 14.335 15.2925 14.335C15.7269 14.335 16.079 13.9558 16.079 13.488V11.8362H23.7962V13.488C23.7962 13.9558 24.1484 14.335 24.5828 14.335C25.0172 14.335 25.3694 13.9558 25.3694 13.488V11.8362H26.1208C27.3979 11.8362 28.4369 12.9552 28.4369 14.3305V15.1397H11.4383V14.3305C11.4383 12.9552 12.4774 11.8362 13.7546 11.8362ZM26.1207 28.4668H13.7546C12.4774 28.4668 11.4383 27.3479 11.4383 25.9724V16.8338H28.4369V25.9724C28.4369 27.3479 27.3979 28.4668 26.1207 28.4668ZM16.8525 20.1656C16.8525 20.6335 16.5003 21.0127 16.0659 21.0127H14.5191C14.0846 21.0127 13.7325 20.6335 13.7325 20.1656C13.7325 19.6978 14.0846 19.3186 14.5191 19.3186H16.0659C16.5003 19.3186 16.8525 19.6978 16.8525 20.1656ZM26.1428 20.1656C26.1428 20.6335 25.7907 21.0127 25.3563 21.0127H23.8094C23.375 21.0127 23.0228 20.6335 23.0228 20.1656C23.0228 19.6978 23.375 19.3186 23.8094 19.3186H25.3563C25.7906 19.3186 26.1428 19.6978 26.1428 20.1656ZM21.4932 20.1656C21.4932 20.6335 21.141 21.0127 20.7066 21.0127H19.1597C18.7253 21.0127 18.3732 20.6335 18.3732 20.1656C18.3732 19.6978 18.7253 19.3186 19.1597 19.3186H20.7066C21.141 19.3186 21.4932 19.6978 21.4932 20.1656ZM16.8525 25.1633C16.8525 25.6311 16.5003 26.0104 16.0659 26.0104H14.5191C14.0846 26.0104 13.7325 25.6311 13.7325 25.1633C13.7325 24.6955 14.0846 24.3162 14.5191 24.3162H16.0659C16.5003 24.3162 16.8525 24.6955 16.8525 25.1633ZM26.1428 25.1633C26.1428 25.6311 25.7907 26.0104 25.3563 26.0104H23.8094C23.375 26.0104 23.0228 25.6311 23.0228 25.1633C23.0228 24.6955 23.375 24.3162 23.8094 24.3162H25.3563C25.7906 24.3162 26.1428 24.6955 26.1428 25.1633ZM21.4932 25.1633C21.4932 25.6311 21.141 26.0104 20.7066 26.0104H19.1597C18.7253 26.0104 18.3732 25.6311 18.3732 25.1633C18.3732 24.6955 18.7253 24.3162 19.1597 24.3162H20.7066C21.141 24.3162 21.4932 24.6955 21.4932 25.1633Z" fill="white"/>
</g>
<defs>
<clipPath id="clip0_4137_4640">
<rect width="20.1448" height="21.6944" fill="white" transform="translate(9.86523 8.47168)"/>
</clipPath>
</defs>
</svg>
