<svg width="30" height="30" viewBox="0 0 30 30" fill="none" xmlns="http://www.w3.org/2000/svg">
<path d="M27.3633 4.45312H2.63672C1.18283 4.45312 0 5.63596 0 7.08984V22.9102C0 24.364 1.18283 25.5469 2.63672 25.5469H27.3633C28.8172 25.5469 30 24.364 30 22.9102V7.08984C30 5.63596 28.8172 4.45312 27.3633 4.45312ZM8.78906 23.7891H2.63672C2.15209 23.7891 1.75781 23.3948 1.75781 22.9102V13.2422H3.65947C4.09799 14.5515 5.44236 15.3402 6.80502 15.0732L5.42103 17.1492C5.1518 17.5531 5.26096 18.0988 5.66484 18.368C6.06867 18.6372 6.61441 18.5281 6.88365 18.1242L8.78906 15.2661V23.7891ZM5.27344 12.3621C5.27344 11.5619 6.16336 11.0831 6.83115 11.5284L8.08348 12.3633L6.83115 13.1982C6.16564 13.6419 5.27344 13.1682 5.27344 12.3621ZM8.78906 10.721L7.80621 10.0658C6.28881 9.05414 4.23416 9.76893 3.65977 11.4843H1.75781V7.08979C1.75781 6.60521 2.15209 6.21094 2.63672 6.21094H8.78906V10.721ZM28.2422 22.9102C28.2422 23.3948 27.8479 23.7891 27.3633 23.7891H10.5469V15.2661L12.4523 18.1243C12.7219 18.5286 13.2677 18.637 13.6711 18.3681C14.075 18.0988 14.1841 17.5531 13.9149 17.1493L12.5309 15.0733C13.8874 15.339 15.2357 14.5578 15.6762 13.2422H28.2422V22.9102ZM11.2525 12.3633L12.5048 11.5284C13.1704 11.0846 14.0625 11.5583 14.0625 12.3645C14.0625 13.166 13.1713 13.6426 12.5048 13.1981L11.2525 12.3633ZM28.2422 11.4844H15.6765C15.102 9.76916 13.0473 9.05408 11.5297 10.0658L10.5469 10.721V6.21094H27.3633C27.8479 6.21094 28.2422 6.60521 28.2422 7.08984V11.4844Z" fill="#004E97"/>
<path d="M25.6055 16.7578H18.457C17.9716 16.7578 17.5781 17.1513 17.5781 17.6367C17.5781 18.1221 17.9716 18.5156 18.457 18.5156H25.6055C26.0909 18.5156 26.4844 18.1221 26.4844 17.6367C26.4844 17.1513 26.0909 16.7578 25.6055 16.7578Z" fill="#004E97"/>
<path d="M25.6055 20.2734H18.457C17.9716 20.2734 17.5781 20.667 17.5781 21.1523C17.5781 21.6377 17.9716 22.0312 18.457 22.0312H25.6055C26.0909 22.0312 26.4844 21.6377 26.4844 21.1523C26.4844 20.667 26.0909 20.2734 25.6055 20.2734Z" fill="#004E97"/>
</svg>
