<svg width="30" height="22" viewBox="0 0 30 22" fill="none" xmlns="http://www.w3.org/2000/svg">
<path d="M27.3633 0.453125H2.63672C1.18283 0.453125 0 1.63596 0 3.08984V18.9102C0 20.364 1.18283 21.5469 2.63672 21.5469H27.3633C28.8172 21.5469 30 20.364 30 18.9102V3.08984C30 1.63596 28.8172 0.453125 27.3633 0.453125ZM8.78906 19.7891H2.63672C2.15209 19.7891 1.75781 19.3948 1.75781 18.9102V9.24219H3.65947C4.09799 10.5515 5.44236 11.3402 6.80502 11.0732L5.42103 13.1492C5.1518 13.5531 5.26096 14.0988 5.66484 14.368C6.06867 14.6372 6.61441 14.5281 6.88365 14.1242L8.78906 11.2661V19.7891ZM5.27344 8.36205C5.27344 7.56189 6.16336 7.08307 6.83115 7.52838L8.08348 8.36328L6.83115 9.19818C6.16564 9.64186 5.27344 9.16824 5.27344 8.36205ZM8.78906 6.72102L7.80621 6.06576C6.28881 5.05414 4.23416 5.76893 3.65977 7.48432H1.75781V3.08979C1.75781 2.60521 2.15209 2.21094 2.63672 2.21094H8.78906V6.72102ZM28.2422 18.9102C28.2422 19.3948 27.8479 19.7891 27.3633 19.7891H10.5469V11.2661L12.4523 14.1243C12.7219 14.5286 13.2677 14.637 13.6711 14.3681C14.075 14.0988 14.1841 13.5531 13.9149 13.1493L12.5309 11.0733C13.8874 11.339 15.2357 10.5578 15.6762 9.24225H28.2422V18.9102ZM11.2525 8.36328L12.5048 7.52838C13.1704 7.08465 14.0625 7.55832 14.0625 8.36445C14.0625 9.16596 13.1713 9.64262 12.5048 9.19812L11.2525 8.36328ZM28.2422 7.48438H15.6765C15.102 5.76916 13.0473 5.05408 11.5297 6.06582L10.5469 6.72102V2.21094H27.3633C27.8479 2.21094 28.2422 2.60521 28.2422 3.08984V7.48438Z" fill="#00AA30"/>
</svg>
