<svg width="67" height="72" viewBox="0 0 67 72" fill="none" xmlns="http://www.w3.org/2000/svg">
<circle cx="33.5" cy="33.5" r="33.5" fill="#F9F9F9"/>
<circle cx="53" cy="59" r="13" fill="#7E0FC6"/>
<g clip-path="url(#clip0_2514_6772)">
<path d="M58.5312 59.4688H53.4688V64.5312C53.4688 64.7901 53.2589 65 53 65C52.7411 65 52.5312 64.7901 52.5312 64.5312V59.4688H47.4688C47.2099 59.4688 47 59.2589 47 59C47 58.7411 47.2099 58.5312 47.4688 58.5312H52.5312V53.4688C52.5312 53.2099 52.7411 53 53 53C53.2589 53 53.4688 53.2099 53.4688 53.4688V58.5312H58.5312C58.7901 58.5312 59 58.7411 59 59C59 59.2589 58.7901 59.4688 58.5312 59.4688Z" fill="white"/>
</g>
<g clip-path="url(#clip1_2514_6772)">
<path d="M43.9477 20.8145H23.0538C21.3696 20.8145 20 22.1329 20 23.7566V42.2482C20 43.87 21.3696 45.187 23.0538 45.187H43.9476C45.6318 45.187 46.9999 43.87 46.9999 42.2482V23.7566C47 22.1329 45.6319 20.8145 43.9477 20.8145ZM37.4596 25.19C39.0883 25.19 40.4091 26.462 40.4091 28.0303C40.4091 29.5986 39.0882 30.8706 37.4596 30.8706C35.8304 30.8706 34.51 29.5986 34.51 28.0303C34.51 26.462 35.8304 25.19 37.4596 25.19ZM42.99 42.4687H33.4997H24.4323C23.6177 42.4687 23.2549 41.9011 23.6221 41.2009L28.6841 31.5461C29.0508 30.846 29.7498 30.7835 30.2449 31.4065L35.3349 37.8119C35.8299 38.4349 36.6951 38.4879 37.2678 37.9297L38.513 36.7155C39.0852 36.1574 39.9283 36.2265 40.3953 36.8689L43.6197 41.3041C44.0858 41.9475 43.8046 42.4687 42.99 42.4687Z" fill="#808D9E"/>
</g>
<defs>
<clipPath id="clip0_2514_6772">
<rect width="12" height="12" fill="white" transform="matrix(1 0 0 -1 47 65)"/>
</clipPath>
<clipPath id="clip1_2514_6772">
<rect width="27" height="26" fill="white" transform="translate(20 19.9998)"/>
</clipPath>
</defs>
</svg>
