<svg width="23" height="24" viewBox="0 0 23 24" fill="none" xmlns="http://www.w3.org/2000/svg">
<rect width="23" height="24" rx="5" fill="#209A42"/>
<g clip-path="url(#clip0_2554_5259)">
<path d="M16.7478 12.0628C16.6521 11.95 14.3664 9.30463 11.4445 9.30463C8.52249 9.30463 6.23691 11.95 6.14105 12.0629C5.95297 12.284 5.95297 12.6049 6.14116 12.8263C6.23691 12.939 8.52249 15.5843 11.4445 15.5843C14.3664 15.5843 16.6521 12.9388 16.7479 12.826C16.936 12.6049 16.936 12.284 16.7478 12.0628ZM12.337 10.8937C12.5335 10.7865 12.8075 10.9095 12.9489 11.1685C13.0903 11.4276 13.0457 11.7246 12.8492 11.8318C12.6528 11.9392 12.3787 11.816 12.2372 11.557C12.0959 11.298 12.1404 11.001 12.337 10.8937ZM11.4445 14.6259C9.4034 14.6259 7.6857 13.0584 7.09117 12.4445C7.49265 12.0298 8.40673 11.1808 9.58639 10.673C9.3563 11.0231 9.2214 11.4414 9.2214 11.8916C9.2214 13.1194 10.2166 14.1146 11.4444 14.1146C12.6722 14.1146 13.6675 13.1194 13.6675 11.8916C13.6675 11.4414 13.5327 11.0231 13.3026 10.673C14.4823 11.1809 15.3963 12.0298 15.7977 12.4445C15.2032 13.0587 13.4855 14.6259 11.4445 14.6259Z" fill="white"/>
</g>
<defs>
<clipPath id="clip0_2554_5259">
<rect width="10.8889" height="10.8889" fill="white" transform="translate(6 7)"/>
</clipPath>
</defs>
</svg>
