<svg width="23" height="24" viewBox="0 0 23 24" fill="none" xmlns="http://www.w3.org/2000/svg">
<rect width="23" height="24" rx="5" fill="#FF0000"/>
<g clip-path="url(#clip0_2521_2752)">
<path d="M7.21484 9.92969L7.73377 16.194C7.77096 16.6458 8.15576 17 8.60924 17H13.3906C13.8441 17 14.2289 16.6458 14.2661 16.194L14.785 9.92969H7.21484ZM9.53478 15.8281C9.38143 15.8281 9.2524 15.7088 9.24268 15.5535L8.94971 10.8269C8.93969 10.6653 9.06242 10.5262 9.22379 10.5162C9.39115 10.5045 9.5242 10.6286 9.53449 10.7903L9.82746 15.5168C9.83783 15.6842 9.70539 15.8281 9.53478 15.8281ZM11.2929 15.5352C11.2929 15.6971 11.1618 15.8281 10.9999 15.8281C10.838 15.8281 10.7069 15.6971 10.7069 15.5352V10.8086C10.7069 10.6467 10.838 10.5156 10.9999 10.5156C11.1618 10.5156 11.2929 10.6467 11.2929 10.8086V15.5352ZM13.0501 10.8269L12.7571 15.5535C12.7475 15.7073 12.6193 15.8354 12.4464 15.8276C12.2851 15.8175 12.1623 15.6785 12.1723 15.5169L12.4653 10.7903C12.4753 10.6287 12.617 10.5111 12.776 10.5162C12.9374 10.5262 13.0601 10.6653 13.0501 10.8269Z" fill="white"/>
<path d="M14.8086 8.17188H13.0508V7.87891C13.0508 7.39426 12.6565 7 12.1719 7H9.82812C9.34348 7 8.94922 7.39426 8.94922 7.87891V8.17188H7.19141C6.86779 8.17188 6.60547 8.4342 6.60547 8.75781C6.60547 9.08139 6.86779 9.34375 7.19141 9.34375C9.88605 9.34375 12.114 9.34375 14.8086 9.34375C15.1322 9.34375 15.3945 9.08139 15.3945 8.75781C15.3945 8.4342 15.1322 8.17188 14.8086 8.17188ZM12.4648 8.17188H9.53516V7.87891C9.53516 7.71727 9.66648 7.58594 9.82812 7.58594H12.1719C12.3335 7.58594 12.4648 7.71727 12.4648 7.87891V8.17188Z" fill="white"/>
</g>
<defs>
<clipPath id="clip0_2521_2752">
<rect width="10" height="10" fill="white" transform="translate(6 7)"/>
</clipPath>
</defs>
</svg>
