<svg width="206" height="55" viewBox="0 0 206 55" fill="none" xmlns="http://www.w3.org/2000/svg">
<g clip-path="url(#clip0_2034_11709)">
<path fill-rule="evenodd" clip-rule="evenodd" d="M22.4142 12.5095C25.7326 11.8396 31.6495 10.2112 34.1432 7.18746C37.8611 2.68572 32.3938 -3.38208 26.3572 2.30978C24.0204 4.50782 21.7707 7.80115 20.996 11.2889C20.9021 11.2699 20.8088 11.2638 20.7087 11.2638C20.6148 11.2638 20.5147 11.2699 20.4275 11.2889C19.6468 7.80115 17.3971 4.50782 15.0663 2.30978C9.02304 -3.38208 3.55569 2.68572 7.2736 7.18746C9.77338 10.2119 15.6842 11.8396 19.0026 12.5095C18.9525 12.6849 18.9214 12.8665 18.9214 13.0541C18.9214 13.1415 18.9275 13.2234 18.9404 13.3047H22.4832C22.4893 13.2234 22.4954 13.1421 22.4954 13.0541C22.4954 12.8665 22.4703 12.6849 22.4142 12.5095ZM21.3144 11.3702C22.5643 8.91541 23.7453 6.83049 25.732 4.85801C32.0118 -1.37845 40.104 8.0511 22.2574 12.1525C22.0452 11.7894 21.7139 11.5144 21.3144 11.3702ZM20.2835 11.3261C14.4471 -4.06418 3.37453 2.84219 10.9476 8.21434C13.4473 9.99241 17.0273 11.295 19.1648 12.1525C19.371 11.7894 19.8834 11.4704 20.2835 11.3261Z" fill="#E36316"/>
<path fill-rule="evenodd" clip-rule="evenodd" d="M4.99889 13.5865H18.9458C19.6332 13.5865 20.1956 14.1501 20.1956 14.8389V32.5716C20.1956 33.2604 19.6332 33.824 18.9458 33.824H1.24989C0.562417 33.824 0 33.2604 0 32.5716V18.5956C0 15.8407 2.24967 13.5865 4.99889 13.5865Z" fill="#C1252A"/>
<path fill-rule="evenodd" clip-rule="evenodd" d="M36.0109 13.5865H22.064C21.3765 13.5865 20.8202 14.1501 20.8202 14.8389V23.8052C20.8202 29.3155 25.3128 33.8233 30.8119 33.8233H39.7599C40.4473 33.8233 41.0097 33.2598 41.0097 32.5709V18.5956C41.0104 15.8407 38.7608 13.5865 36.0109 13.5865Z" fill="#FB8A26"/>
<path fill-rule="evenodd" clip-rule="evenodd" d="M4.99889 54.6806H18.9458C19.6332 54.6806 20.1956 54.1171 20.1956 53.4282V44.4681C20.1956 38.9577 15.6963 34.4499 10.1979 34.4499H1.24989C0.562417 34.4499 0 35.0135 0 35.7023V49.6715C0 52.4264 2.24967 54.6806 4.99889 54.6806Z" fill="#108AB1"/>
<path fill-rule="evenodd" clip-rule="evenodd" d="M36.0109 54.6806H22.064C21.3765 54.6806 20.8202 54.1171 20.8202 53.4282V36.3282C20.8202 35.2952 21.6577 34.4499 22.6886 34.4499H39.7599C40.4473 34.4499 41.0097 35.0135 41.0097 35.7023V49.6715C41.0104 52.4264 38.7608 54.6806 36.0109 54.6806Z" fill="#0E4B5B"/>
<path fill-rule="evenodd" clip-rule="evenodd" d="M9.76056 17.312C10.1607 17.312 10.5352 17.3492 10.8854 17.4312C11.2416 17.5064 11.5668 17.6188 11.8662 17.7692H14.6905V18.8022C14.6905 18.9647 14.6466 19.0901 14.5594 19.1842C14.4722 19.2716 14.3221 19.3407 14.1091 19.3908L13.4278 19.5473C13.5089 19.8162 13.5528 20.098 13.5528 20.3865C13.5528 20.8498 13.4589 21.2691 13.2594 21.6451C13.0654 22.0142 12.7971 22.3339 12.4598 22.5907C12.1164 22.8535 11.7162 23.054 11.2538 23.1915C10.7914 23.3358 10.2912 23.4042 9.76056 23.4042C9.46718 23.4042 9.19206 23.3852 8.93586 23.354C8.72968 23.4733 8.62355 23.6169 8.62355 23.7733C8.62355 23.9359 8.71076 24.049 8.87367 24.1174C9.04266 24.1926 9.26101 24.2427 9.53005 24.2678C9.79841 24.2929 10.1114 24.3118 10.4609 24.3118C10.8043 24.3118 11.1605 24.324 11.5228 24.362C11.8852 24.3931 12.2414 24.4493 12.5848 24.5245C12.935 24.6058 13.2473 24.7311 13.5156 24.9066C13.784 25.082 14.0091 25.3197 14.172 25.6144C14.341 25.9023 14.4221 26.2782 14.4221 26.7354C14.4221 27.1547 14.316 27.5679 14.1098 27.975C13.9097 28.376 13.6096 28.7391 13.2101 29.052C12.8099 29.3649 12.3293 29.6217 11.7479 29.81C11.1734 29.9976 10.5109 30.0978 9.76056 30.0978C9.02914 30.0978 8.39845 30.0288 7.86713 29.8913C7.32972 29.747 6.89236 29.5722 6.53612 29.3467C6.18596 29.115 5.92368 28.8583 5.75536 28.5575C5.58637 28.2696 5.50525 27.9628 5.50525 27.6431C5.50525 27.2238 5.63031 26.8729 5.88042 26.5851C6.13662 26.2972 6.48002 26.0777 6.91738 25.9151C6.7112 25.7776 6.54221 25.5961 6.41715 25.3766C6.28601 25.1572 6.22314 24.8883 6.22314 24.5503C6.22314 24.4128 6.24815 24.2624 6.29818 24.112C6.3482 23.9555 6.42323 23.8052 6.52328 23.6609C6.62332 23.5166 6.75446 23.373 6.91062 23.2416C7.06677 23.1102 7.25401 22.991 7.47303 22.8907C6.98565 22.6279 6.59831 22.2899 6.32319 21.8578C6.04198 21.4256 5.89799 20.9311 5.89799 20.3615C5.89799 19.892 5.99804 19.4721 6.19813 19.0901C6.39822 18.7141 6.67335 18.3951 7.01675 18.1323C7.36014 17.8694 7.76641 17.669 8.23554 17.5247C8.70467 17.3804 9.21707 17.312 9.76056 17.312ZM11.8412 27.1865C11.8412 27.0362 11.7912 26.9109 11.6972 26.8235C11.6033 26.7293 11.4782 26.6541 11.3221 26.5979C11.1598 26.5478 10.9719 26.5038 10.7597 26.4787C10.5474 26.4536 10.3162 26.4415 10.0661 26.4415C9.82207 26.4415 9.56587 26.4415 9.30359 26.4415C9.03523 26.4415 8.77227 26.4225 8.51607 26.3663C8.34099 26.4916 8.20377 26.623 8.09088 26.7673C7.97867 26.9176 7.92189 27.0802 7.92189 27.2685C7.92189 27.406 7.95298 27.5252 8.00909 27.6316C8.06519 27.7379 8.16524 27.8321 8.30922 27.9073C8.45321 27.9885 8.64654 28.0515 8.89057 28.0949C9.1346 28.1389 9.44014 28.164 9.81531 28.164C10.2216 28.164 10.5467 28.1389 10.809 28.0888C11.0652 28.0387 11.2775 27.9696 11.4275 27.8883C11.5837 27.8009 11.6837 27.7007 11.7459 27.5754C11.8101 27.4622 11.8412 27.3308 11.8412 27.1865ZM9.76056 21.6701C10.229 21.6701 10.5602 21.5577 10.7732 21.326C10.9794 21.0883 11.0794 20.7936 11.0794 20.4245C11.0794 20.0485 10.9794 19.7484 10.7732 19.5351C10.5609 19.3156 10.2297 19.2093 9.76056 19.2093C9.29818 19.2093 8.96695 19.3156 8.76078 19.5351C8.54852 19.7478 8.44848 20.0485 8.44848 20.4245C8.44848 20.606 8.47349 20.7686 8.52351 20.9257C8.57353 21.0761 8.65465 21.2014 8.76078 21.3138C8.86691 21.4263 9.01089 21.5143 9.17313 21.5766C9.34212 21.639 9.53545 21.6701 9.76056 21.6701Z" fill="white"/>
<path fill-rule="evenodd" clip-rule="evenodd" d="M32.2748 21.1194V30.5056H29.4817V21.1194H32.2748ZM32.5993 18.5522C32.5993 18.7717 32.5554 18.9844 32.4682 19.1781C32.3742 19.3725 32.2491 19.5473 32.093 19.6916C31.9368 19.8419 31.7557 19.9544 31.5495 20.0424C31.3433 20.1298 31.1182 20.1799 30.887 20.1799C30.6558 20.1799 30.4436 20.1298 30.2435 20.0424C30.0495 19.9551 29.8751 19.8419 29.7189 19.6916C29.5689 19.5473 29.4438 19.3725 29.3566 19.1781C29.2694 18.9837 29.2255 18.771 29.2255 18.5522C29.2255 18.3206 29.2694 18.1079 29.3566 17.9074C29.4438 17.7069 29.5689 17.5315 29.7189 17.3818C29.8751 17.2314 30.0502 17.1189 30.2435 17.0309C30.4436 16.9496 30.6558 16.9056 30.887 16.9056C31.1182 16.9056 31.3433 16.9496 31.5495 17.0309C31.7557 17.1183 31.9368 17.2314 32.093 17.3818C32.2491 17.5321 32.3742 17.7076 32.4682 17.9074C32.556 18.1072 32.5993 18.3206 32.5993 18.5522Z" fill="white"/>
<path fill-rule="evenodd" clip-rule="evenodd" d="M8.25439 51.281V43.8232L7.64195 43.6979C7.42969 43.6478 7.26069 43.5726 7.13564 43.4724C7.0045 43.366 6.93555 43.2156 6.93555 43.0151V41.9131H8.25371V41.3807C8.25371 40.8422 8.34091 40.3599 8.51599 39.9216C8.68499 39.4895 8.93443 39.1203 9.25349 38.8135C9.57864 38.5066 9.96598 38.2689 10.4283 38.0995C10.8907 37.9302 11.422 37.8428 12.0095 37.8428C12.2407 37.8428 12.4529 37.8618 12.6469 37.8929C12.8409 37.9241 13.0471 37.9742 13.2533 38.0433L13.2033 39.3892C13.1972 39.4834 13.1722 39.5647 13.1282 39.627C13.0782 39.6832 13.0221 39.7394 12.9592 39.7773C12.8903 39.8146 12.8152 39.8397 12.7341 39.8586C12.653 39.8776 12.5719 39.8898 12.4969 39.8898C12.2467 39.8898 12.0284 39.9088 11.8405 39.9589C11.6465 40.009 11.4842 40.0903 11.3592 40.2156C11.228 40.3409 11.128 40.5035 11.059 40.704C10.9968 40.9045 10.959 41.1612 10.959 41.468V41.9124H13.1647V43.8286H11.053V51.2796H8.25439V51.281Z" fill="white"/>
<path fill-rule="evenodd" clip-rule="evenodd" d="M31.6373 50.6923C31.1871 50.6923 30.7998 50.6233 30.4624 50.4918C30.119 50.3665 29.8311 50.1789 29.5999 49.9411C29.3687 49.7034 29.1936 49.4155 29.0753 49.0768C28.9503 48.7388 28.8942 48.3629 28.8942 47.9497V43.0971H28.1006C27.9566 43.0971 27.8322 43.047 27.7254 42.9528C27.6253 42.8654 27.5753 42.7273 27.5753 42.5518V41.4748L29.0625 41.1808L29.6121 38.8765C29.6871 38.5825 29.8933 38.4382 30.2245 38.4382H31.6866V41.1747H33.9613V43.0971H31.6866V47.7492C31.6866 47.9687 31.7427 48.1434 31.8489 48.2877C31.955 48.432 32.1051 48.5004 32.3052 48.5004C32.4052 48.5004 32.4924 48.4882 32.5614 48.4692C32.6303 48.4503 32.6925 48.4252 32.7425 48.3941C32.7925 48.369 32.8426 48.3439 32.8865 48.325C32.9304 48.2999 32.9805 48.2938 33.0427 48.2938C33.1299 48.2938 33.1988 48.3128 33.2488 48.35C33.2989 48.3941 33.3489 48.4503 33.405 48.5377L34.2547 49.8775C33.8924 50.1464 33.4861 50.3469 33.0359 50.4851C32.581 50.6233 32.1186 50.6923 31.6373 50.6923Z" fill="white"/>
</g>
<path d="M66.2798 29.1622C66.052 28.4649 65.7516 27.8401 65.3788 27.2878C65.0129 26.7285 64.5745 26.2521 64.0636 25.8586C63.5596 25.4651 62.9865 25.1647 62.3444 24.9576C61.7024 24.7505 60.9981 24.6469 60.2318 24.6469C58.9752 24.6469 57.8326 24.9714 56.8039 25.6204C55.7752 26.2694 54.957 27.2256 54.3495 28.4891C53.7419 29.7525 53.4381 31.3025 53.4381 33.139C53.4381 34.9755 53.7454 36.5255 54.3598 37.7889C54.9743 39.0524 55.8062 40.0086 56.8557 40.6576C57.9051 41.3066 59.0857 41.6311 60.3975 41.6311C61.6126 41.6311 62.6827 41.3722 63.6079 40.8544C64.5399 40.3296 65.2649 39.5909 65.7827 38.6381C66.3074 37.6785 66.5698 36.5496 66.5698 35.2517L67.3568 35.4174H60.9774V33.139H69.0552V35.4174C69.0552 37.1641 68.6824 38.683 67.9368 39.9741C67.198 41.2651 66.1762 42.2662 64.8713 42.9774C63.5734 43.6816 62.0821 44.0337 60.3975 44.0337C58.5196 44.0337 56.8695 43.5918 55.4472 42.7081C54.0319 41.8244 52.9272 40.5678 52.1332 38.9385C51.3462 37.3091 50.9526 35.3759 50.9526 33.139C50.9526 31.4613 51.177 29.9527 51.6258 28.6133C52.0815 27.267 52.7235 26.121 53.552 25.1751C54.3805 24.2292 55.3609 23.5043 56.4932 23.0003C57.6255 22.4963 58.8717 22.2443 60.2318 22.2443C61.3502 22.2443 62.3928 22.4134 63.3593 22.7517C64.3328 23.0831 65.1993 23.5561 65.9587 24.1705C66.7251 24.7781 67.3637 25.5065 67.8746 26.3557C68.3855 27.198 68.7377 28.1335 68.931 29.1622H66.2798Z" fill="#252D31"/>
<path d="M76.0224 22.5343V43.7437H73.454V22.5343H76.0224Z" fill="#252D31"/>
<path d="M81.172 43.7437V22.5343H93.8894V24.8126H83.7403V31.9791H92.9366V34.2575H83.7403V43.7437H81.172Z" fill="#252D31"/>
<path d="M97.1283 24.8126V22.5343H113.035V24.8126H106.366V43.7437H103.798V24.8126H97.1283Z" fill="#252D31"/>
<path d="M143.49 30.2186H138.312C138.243 29.6869 138.102 29.2071 137.888 28.779C137.674 28.351 137.391 27.9851 137.038 27.6813C136.686 27.3775 136.269 27.1462 135.785 26.9874C135.309 26.8217 134.781 26.7389 134.201 26.7389C133.172 26.7389 132.285 26.9909 131.539 27.4949C130.801 27.9989 130.231 28.7273 129.831 29.68C129.437 30.6328 129.24 31.7858 129.24 33.139C129.24 34.5474 129.44 35.728 129.841 36.6808C130.248 37.6267 130.818 38.3413 131.55 38.8245C132.288 39.3009 133.162 39.5391 134.17 39.5391C134.736 39.5391 135.25 39.4666 135.713 39.3216C136.182 39.1767 136.593 38.9661 136.945 38.6899C137.304 38.4068 137.598 38.0651 137.825 37.6646C138.06 37.2573 138.222 36.7982 138.312 36.2873L143.49 36.3183C143.401 37.2573 143.128 38.1825 142.672 39.0938C142.223 40.0051 141.605 40.8371 140.818 41.5896C140.031 42.3353 139.072 42.929 137.939 43.3709C136.814 43.8128 135.523 44.0337 134.066 44.0337C132.147 44.0337 130.428 43.6125 128.909 42.7702C127.397 41.921 126.202 40.6852 125.326 39.0627C124.449 37.4403 124.01 35.4657 124.01 33.139C124.01 30.8054 124.456 28.8274 125.346 27.2049C126.237 25.5824 127.442 24.3501 128.961 23.5077C130.479 22.6654 132.181 22.2443 134.066 22.2443C135.35 22.2443 136.538 22.4238 137.629 22.7828C138.72 23.1349 139.679 23.6527 140.508 24.3362C141.336 25.0128 142.009 25.8448 142.527 26.8321C143.045 27.8194 143.366 28.9482 143.49 30.2186Z" fill="#252D31"/>
<path d="M150.47 43.7437H144.961L152.117 22.5343H158.942L166.098 43.7437H160.588L155.607 27.8781H155.441L150.47 43.7437ZM149.735 35.3966H161.251V39.2906H149.735V35.3966Z" fill="#252D31"/>
<path d="M168.381 43.7437V22.5343H177.143C178.731 22.5343 180.101 22.8208 181.254 23.3938C182.414 23.96 183.308 24.7747 183.936 25.8379C184.565 26.8942 184.879 28.1473 184.879 29.5972C184.879 31.0678 184.558 32.3174 183.916 33.3461C183.274 34.3679 182.362 35.1481 181.182 35.6866C180.001 36.2182 178.603 36.484 176.987 36.484H171.447V32.4451H176.035C176.808 32.4451 177.453 32.345 177.971 32.1448C178.496 31.9377 178.893 31.627 179.162 31.2127C179.431 30.7916 179.566 30.2531 179.566 29.5972C179.566 28.9413 179.431 28.3993 179.162 27.9713C178.893 27.5363 178.496 27.2118 177.971 26.9978C177.447 26.7768 176.801 26.6664 176.035 26.6664H173.508V43.7437H168.381ZM180.322 34.0503L185.604 43.7437H180.011L174.833 34.0503H180.322Z" fill="#252D31"/>
<path d="M195.53 43.7437H187.691V22.5343H195.52C197.681 22.5343 199.541 22.9589 201.102 23.8081C202.669 24.6504 203.877 25.8655 204.726 27.4535C205.576 29.0345 206 30.9262 206 33.1286C206 35.338 205.576 37.2366 204.726 38.8245C203.884 40.4125 202.679 41.6311 201.112 42.4803C199.545 43.3226 197.684 43.7437 195.53 43.7437ZM192.817 39.3734H195.333C196.521 39.3734 197.525 39.1732 198.347 38.7728C199.176 38.3654 199.8 37.7061 200.221 36.7947C200.65 35.8765 200.864 34.6545 200.864 33.1286C200.864 31.6028 200.65 30.3877 200.221 29.4833C199.793 28.5719 199.162 27.916 198.326 27.5156C197.498 27.1082 196.476 26.9046 195.261 26.9046H192.817V39.3734Z" fill="#252D31"/>
<defs>
<clipPath id="clip0_2034_11709">
<rect width="41.0105" height="54.6806" fill="white"/>
</clipPath>
</defs>
</svg>
