<svg width="350" height="196" viewBox="0 0 350 196" fill="none" xmlns="http://www.w3.org/2000/svg">
<rect width="350" height="196" rx="10" fill="#DB1205"/>
<path d="M301.865 30.2276V19.3185H302.564V30.2276H301.865ZM303.718 22.9194C303.684 22.5756 303.538 22.3086 303.279 22.1183C303.021 21.9279 302.67 21.8327 302.227 21.8327C301.926 21.8327 301.672 21.8754 301.464 21.9606C301.257 22.043 301.098 22.158 300.987 22.3058C300.879 22.4535 300.825 22.6211 300.825 22.8086C300.819 22.9648 300.852 23.1012 300.923 23.2177C300.997 23.3342 301.098 23.435 301.226 23.5202C301.353 23.6026 301.501 23.6751 301.669 23.7376C301.836 23.7972 302.015 23.8484 302.206 23.891L302.99 24.0785C303.37 24.1637 303.72 24.2773 304.038 24.4194C304.356 24.5614 304.632 24.7362 304.865 24.9435C305.098 25.1509 305.278 25.3952 305.406 25.6765C305.537 25.9577 305.603 26.2802 305.606 26.6438C305.603 27.1779 305.467 27.641 305.197 28.033C304.93 28.4222 304.544 28.7248 304.038 28.9407C303.535 29.1538 302.929 29.2603 302.218 29.2603C301.514 29.2603 300.9 29.1523 300.378 28.9364C299.858 28.7205 299.451 28.4009 299.159 27.9776C298.869 27.5515 298.717 27.0245 298.703 26.3967H300.488C300.508 26.6893 300.592 26.9336 300.74 27.1296C300.89 27.3228 301.091 27.4691 301.341 27.5685C301.593 27.6651 301.879 27.7134 302.197 27.7134C302.51 27.7134 302.781 27.668 303.011 27.5771C303.244 27.4862 303.424 27.3597 303.552 27.1978C303.68 27.0359 303.744 26.8498 303.744 26.6396C303.744 26.4435 303.686 26.2788 303.569 26.1452C303.456 26.0117 303.288 25.8981 303.066 25.8043C302.848 25.7106 302.579 25.6254 302.261 25.5487L301.311 25.31C300.575 25.131 299.994 24.8512 299.568 24.4705C299.142 24.0898 298.93 23.5771 298.933 22.9322C298.93 22.4038 299.071 21.9421 299.355 21.5472C299.642 21.1523 300.035 20.8441 300.535 20.6225C301.035 20.4009 301.603 20.2901 302.24 20.2901C302.887 20.2901 303.453 20.4009 303.936 20.6225C304.422 20.8441 304.799 21.1523 305.069 21.5472C305.339 21.9421 305.478 22.3995 305.487 22.9194H303.718ZM310.353 20.4094V29.1367H308.508V22.1609H308.457L306.458 23.4137V21.7773L308.619 20.4094H310.353ZM315.375 29.256C314.773 29.256 314.236 29.1452 313.764 28.9237C313.295 28.7021 312.923 28.3967 312.648 28.0075C312.372 27.6183 312.228 27.1722 312.217 26.6694H314.007C314.027 27.0075 314.169 27.2816 314.433 27.4918C314.697 27.7021 315.011 27.8072 315.375 27.8072C315.665 27.8072 315.92 27.7433 316.142 27.6154C316.366 27.4847 316.541 27.3043 316.666 27.0742C316.794 26.8413 316.858 26.5742 316.858 26.2731C316.858 25.9663 316.792 25.6964 316.662 25.4634C316.534 25.2305 316.356 25.0487 316.129 24.918C315.902 24.7873 315.642 24.7205 315.349 24.7177C315.094 24.7177 314.845 24.7702 314.603 24.8754C314.365 24.9805 314.179 25.1239 314.045 25.3058L312.405 25.0117L312.818 20.4094H318.153V21.918H314.339L314.113 24.104H314.165C314.318 23.8881 314.549 23.7092 314.859 23.5671C315.169 23.4251 315.515 23.354 315.899 23.354C316.424 23.354 316.893 23.4776 317.305 23.7248C317.717 23.9719 318.042 24.3114 318.281 24.7433C318.52 25.1722 318.638 25.6665 318.635 26.2262C318.638 26.8143 318.501 27.337 318.226 27.7944C317.953 28.2489 317.571 28.6069 317.079 28.8683C316.591 29.1268 316.023 29.256 315.375 29.256ZM323.104 29.3285C322.371 29.3256 321.74 29.1452 321.211 28.7873C320.686 28.4293 320.281 27.9109 319.997 27.2319C319.716 26.5529 319.577 25.7362 319.579 24.7816C319.579 23.8299 319.72 23.0188 320.001 22.3484C320.285 21.6779 320.69 21.168 321.216 20.8185C321.744 20.4663 322.373 20.2901 323.104 20.2901C323.834 20.2901 324.461 20.4663 324.987 20.8185C325.515 21.1708 325.922 21.6822 326.206 22.3526C326.49 23.0202 326.631 23.8299 326.628 24.7816C326.628 25.739 326.486 26.5572 326.202 27.2362C325.92 27.9151 325.517 28.4336 324.991 28.7915C324.466 29.1495 323.836 29.3285 323.104 29.3285ZM323.104 27.7987C323.604 27.7987 324.003 27.5472 324.301 27.0444C324.599 26.5415 324.747 25.7873 324.744 24.7816C324.744 24.1197 324.676 23.5685 324.54 23.1282C324.406 22.6879 324.216 22.3569 323.969 22.1353C323.724 21.9137 323.436 21.8029 323.104 21.8029C322.606 21.8029 322.209 22.0515 321.91 22.5487C321.612 23.0458 321.461 23.7901 321.459 24.7816C321.459 25.4521 321.525 26.0117 321.659 26.4606C321.795 26.9066 321.987 27.2418 322.234 27.4663C322.481 27.6879 322.771 27.7987 323.104 27.7987Z" fill="white"/>
<path fill-rule="evenodd" clip-rule="evenodd" d="M197.63 36.7852C188.69 36.7852 180.718 48.6954 175.502 67.3175C170.287 48.6954 162.312 36.7852 153.374 36.7852C137.663 36.7852 124.922 76.4124 124.922 125.296H137.568C137.568 79.9048 144.646 43.1086 153.374 43.1086C162.102 43.1086 169.181 77.0754 169.181 118.974H181.824C181.824 77.0754 188.901 43.1086 197.63 43.1086C206.358 43.1086 213.436 79.9048 213.436 125.294H226.079C226.079 76.4126 213.342 36.7854 197.628 36.7854" fill="#FFBC00"/>
<path d="M260.157 168.863H262.432L264.836 174.726H264.938L267.342 168.863H269.617V177.59H267.827V171.909H267.755L265.496 177.547H264.278L262.019 171.888H261.947V177.59H260.157V168.863ZM273.821 177.718C273.15 177.718 272.573 177.576 272.091 177.292C271.61 177.005 271.241 176.607 270.983 176.098C270.727 175.59 270.599 175.005 270.599 174.343C270.599 173.672 270.728 173.084 270.987 172.578C271.248 172.07 271.619 171.674 272.099 171.39C272.579 171.103 273.15 170.959 273.812 170.959C274.383 170.959 274.883 171.063 275.312 171.27C275.741 171.478 276.081 171.769 276.331 172.144C276.581 172.519 276.718 172.959 276.744 173.465H275.031C274.983 173.138 274.855 172.875 274.647 172.676C274.443 172.475 274.174 172.374 273.842 172.374C273.561 172.374 273.315 172.451 273.105 172.604C272.897 172.755 272.735 172.975 272.619 173.265C272.502 173.554 272.444 173.905 272.444 174.317C272.444 174.735 272.501 175.09 272.615 175.382C272.731 175.675 272.895 175.898 273.105 176.051C273.315 176.205 273.561 176.282 273.842 176.282C274.049 176.282 274.235 176.239 274.4 176.154C274.568 176.069 274.706 175.945 274.814 175.783C274.924 175.618 274.997 175.421 275.031 175.191H276.744C276.716 175.691 276.579 176.131 276.335 176.512C276.093 176.89 275.76 177.185 275.333 177.398C274.907 177.611 274.403 177.718 273.821 177.718ZM280.794 177.59H277.7V168.863H280.82C281.697 168.863 282.453 169.037 283.087 169.387C283.72 169.733 284.207 170.232 284.548 170.882C284.892 171.533 285.064 172.311 285.064 173.218C285.064 174.127 284.892 174.908 284.548 175.561C284.207 176.215 283.717 176.716 283.078 177.066C282.442 177.415 281.68 177.59 280.794 177.59ZM279.545 176.009H280.717C281.263 176.009 281.722 175.912 282.094 175.719C282.469 175.523 282.75 175.221 282.938 174.811C283.128 174.4 283.223 173.868 283.223 173.218C283.223 172.573 283.128 172.046 282.938 171.637C282.75 171.228 282.47 170.926 282.098 170.733C281.726 170.54 281.267 170.444 280.722 170.444H279.545V176.009ZM289.114 177.718C288.452 177.718 287.88 177.577 287.397 177.296C286.917 177.012 286.546 176.617 286.285 176.111C286.023 175.603 285.892 175.013 285.892 174.343C285.892 173.667 286.023 173.076 286.285 172.57C286.546 172.061 286.917 171.667 287.397 171.385C287.88 171.101 288.452 170.959 289.114 170.959C289.776 170.959 290.347 171.101 290.827 171.385C291.31 171.667 291.682 172.061 291.944 172.57C292.205 173.076 292.336 173.667 292.336 174.343C292.336 175.013 292.205 175.603 291.944 176.111C291.682 176.617 291.31 177.012 290.827 177.296C290.347 177.577 289.776 177.718 289.114 177.718ZM289.123 176.311C289.424 176.311 289.675 176.226 289.877 176.056C290.079 175.882 290.231 175.647 290.333 175.348C290.438 175.05 290.491 174.711 290.491 174.33C290.491 173.949 290.438 173.61 290.333 173.311C290.231 173.013 290.079 172.777 289.877 172.604C289.675 172.431 289.424 172.344 289.123 172.344C288.819 172.344 288.563 172.431 288.356 172.604C288.151 172.777 287.996 173.013 287.891 173.311C287.789 173.61 287.738 173.949 287.738 174.33C287.738 174.711 287.789 175.05 287.891 175.348C287.996 175.647 288.151 175.882 288.356 176.056C288.563 176.226 288.819 176.311 289.123 176.311ZM295.091 173.806V177.59H293.276V171.044H295.006V172.199H295.083C295.228 171.819 295.471 171.517 295.812 171.296C296.152 171.071 296.566 170.959 297.052 170.959C297.506 170.959 297.902 171.059 298.241 171.257C298.579 171.456 298.841 171.74 299.029 172.11C299.216 172.476 299.31 172.914 299.31 173.422V177.59H297.495V173.746C297.498 173.346 297.395 173.033 297.188 172.809C296.981 172.581 296.695 172.468 296.331 172.468C296.087 172.468 295.871 172.52 295.684 172.625C295.499 172.73 295.354 172.884 295.249 173.086C295.147 173.284 295.094 173.525 295.091 173.806ZM302.367 177.713C301.95 177.713 301.578 177.641 301.251 177.496C300.924 177.348 300.666 177.131 300.475 176.844C300.288 176.554 300.194 176.194 300.194 175.762C300.194 175.398 300.261 175.093 300.394 174.846C300.528 174.598 300.71 174.4 300.94 174.249C301.17 174.098 301.431 173.985 301.724 173.908C302.019 173.831 302.329 173.777 302.653 173.746C303.034 173.706 303.34 173.669 303.573 173.635C303.806 173.598 303.975 173.544 304.08 173.473C304.186 173.402 304.238 173.297 304.238 173.158V173.132C304.238 172.863 304.153 172.654 303.982 172.506C303.815 172.358 303.576 172.284 303.267 172.284C302.94 172.284 302.68 172.357 302.487 172.502C302.294 172.644 302.166 172.823 302.103 173.039L300.424 172.902C300.509 172.505 300.677 172.161 300.927 171.871C301.177 171.578 301.499 171.354 301.894 171.198C302.292 171.039 302.752 170.959 303.275 170.959C303.639 170.959 303.987 171.002 304.319 171.087C304.654 171.172 304.951 171.304 305.21 171.483C305.471 171.662 305.677 171.892 305.828 172.174C305.978 172.452 306.053 172.786 306.053 173.175V177.59H304.332V176.682H304.281C304.176 176.887 304.035 177.067 303.859 177.223C303.683 177.377 303.471 177.498 303.224 177.586C302.977 177.671 302.691 177.713 302.367 177.713ZM302.887 176.461C303.154 176.461 303.39 176.408 303.595 176.303C303.799 176.195 303.96 176.05 304.076 175.868C304.193 175.686 304.251 175.48 304.251 175.25V174.556C304.194 174.593 304.116 174.627 304.017 174.658C303.92 174.686 303.811 174.713 303.688 174.739C303.566 174.762 303.444 174.783 303.322 174.803C303.2 174.82 303.089 174.836 302.99 174.85C302.776 174.881 302.59 174.931 302.431 174.999C302.272 175.067 302.149 175.159 302.061 175.276C301.973 175.39 301.928 175.532 301.928 175.702C301.928 175.949 302.018 176.138 302.197 176.269C302.379 176.397 302.609 176.461 302.887 176.461ZM309.037 168.863V177.59H307.222V168.863H309.037ZM312.663 177.696C312.166 177.696 311.716 177.569 311.312 177.313C310.912 177.054 310.594 176.675 310.358 176.175C310.125 175.672 310.008 175.056 310.008 174.326C310.008 173.576 310.129 172.952 310.371 172.455C310.612 171.955 310.933 171.581 311.334 171.334C311.737 171.084 312.179 170.959 312.659 170.959C313.026 170.959 313.331 171.022 313.575 171.147C313.822 171.269 314.021 171.422 314.172 171.607C314.325 171.789 314.442 171.968 314.521 172.144H314.577V168.863H316.388V177.59H314.598V176.542H314.521C314.436 176.723 314.315 176.904 314.159 177.083C314.006 177.259 313.805 177.405 313.558 177.522C313.314 177.638 313.016 177.696 312.663 177.696ZM313.239 176.252C313.531 176.252 313.778 176.172 313.98 176.013C314.185 175.851 314.341 175.625 314.449 175.336C314.56 175.046 314.615 174.706 314.615 174.317C314.615 173.928 314.561 173.59 314.453 173.303C314.345 173.016 314.189 172.794 313.984 172.638C313.78 172.482 313.531 172.404 313.239 172.404C312.94 172.404 312.689 172.485 312.484 172.647C312.28 172.809 312.125 173.033 312.02 173.32C311.915 173.607 311.862 173.939 311.862 174.317C311.862 174.698 311.915 175.034 312.02 175.327C312.128 175.617 312.283 175.844 312.484 176.009C312.689 176.171 312.94 176.252 313.239 176.252ZM318.808 168.863V172.178H317.512V168.863H318.808ZM325.354 172.911L323.692 173.013C323.664 172.871 323.603 172.743 323.509 172.63C323.415 172.513 323.292 172.421 323.138 172.353C322.988 172.282 322.807 172.246 322.597 172.246C322.316 172.246 322.079 172.306 321.885 172.425C321.692 172.542 321.596 172.698 321.596 172.894C321.596 173.05 321.658 173.182 321.783 173.29C321.908 173.398 322.123 173.485 322.427 173.55L323.611 173.789C324.248 173.919 324.722 174.13 325.035 174.419C325.347 174.709 325.503 175.09 325.503 175.561C325.503 175.99 325.377 176.367 325.124 176.691C324.874 177.015 324.53 177.267 324.093 177.449C323.658 177.628 323.157 177.718 322.588 177.718C321.722 177.718 321.032 177.537 320.517 177.176C320.006 176.813 319.706 176.319 319.618 175.694L321.404 175.6C321.458 175.864 321.588 176.066 321.796 176.205C322.003 176.341 322.269 176.409 322.593 176.409C322.911 176.409 323.167 176.348 323.36 176.226C323.556 176.101 323.655 175.941 323.658 175.745C323.655 175.58 323.586 175.445 323.449 175.34C323.313 175.232 323.103 175.15 322.819 175.093L321.685 174.867C321.046 174.739 320.57 174.517 320.258 174.202C319.948 173.887 319.793 173.485 319.793 172.996C319.793 172.576 319.907 172.213 320.134 171.909C320.364 171.605 320.687 171.371 321.101 171.206C321.519 171.042 322.008 170.959 322.567 170.959C323.394 170.959 324.044 171.134 324.519 171.483C324.996 171.833 325.275 172.309 325.354 172.911Z" fill="white"/>
</svg>
