<svg width="63" height="63" viewBox="0 0 63 63" fill="none" xmlns="http://www.w3.org/2000/svg">
<ellipse cx="31.2498" cy="31.6766" rx="30.9129" ry="31.1661" fill="#FF1010" fill-opacity="0.1"/>
<path d="M43.3633 21.4531H18.6367C17.1828 21.4531 16 22.636 16 24.0898V39.9102C16 41.364 17.1828 42.5469 18.6367 42.5469H43.3633C44.8172 42.5469 46 41.364 46 39.9102V24.0898C46 22.636 44.8172 21.4531 43.3633 21.4531ZM24.7891 40.7891H18.6367C18.1521 40.7891 17.7578 40.3948 17.7578 39.9102V30.2422H19.6595C20.098 31.5515 21.4424 32.3402 22.805 32.0732L21.421 34.1492C21.1518 34.5531 21.261 35.0988 21.6648 35.368C22.0687 35.6372 22.6144 35.5281 22.8837 35.1242L24.7891 32.2661V40.7891ZM21.2734 29.3621C21.2734 28.5619 22.1634 28.0831 22.8312 28.5284L24.0835 29.3633L22.8312 30.1982C22.1656 30.6419 21.2734 30.1682 21.2734 29.3621ZM24.7891 27.721L23.8062 27.0658C22.2888 26.0541 20.2342 26.7689 19.6598 28.4843H17.7578V24.0898C17.7578 23.6052 18.1521 23.2109 18.6367 23.2109H24.7891V27.721ZM44.2422 39.9102C44.2422 40.3948 43.8479 40.7891 43.3633 40.7891H26.5469V32.2661L28.4523 35.1243C28.7219 35.5286 29.2677 35.637 29.6711 35.3681C30.075 35.0988 30.1841 34.5531 29.9149 34.1493L28.5309 32.0733C29.8874 32.339 31.2357 31.5578 31.6762 30.2422H44.2422V39.9102ZM27.2525 29.3633L28.5048 28.5284C29.1704 28.0846 30.0625 28.5583 30.0625 29.3645C30.0625 30.166 29.1713 30.6426 28.5048 30.1981L27.2525 29.3633ZM44.2422 28.4844H31.6765C31.102 26.7692 29.0473 26.0541 27.5297 27.0658L26.5469 27.721V23.2109H43.3633C43.8479 23.2109 44.2422 23.6052 44.2422 24.0898V28.4844Z" fill="#FF1010"/>
<path d="M41.6055 33.7578H34.457C33.9716 33.7578 33.5781 34.1513 33.5781 34.6367C33.5781 35.1221 33.9716 35.5156 34.457 35.5156H41.6055C42.0909 35.5156 42.4844 35.1221 42.4844 34.6367C42.4844 34.1513 42.0909 33.7578 41.6055 33.7578Z" fill="#FF1010"/>
<path d="M41.6055 37.2734H34.457C33.9716 37.2734 33.5781 37.667 33.5781 38.1523C33.5781 38.6377 33.9716 39.0312 34.457 39.0312H41.6055C42.0909 39.0312 42.4844 38.6377 42.4844 38.1523C42.4844 37.667 42.0909 37.2734 41.6055 37.2734Z" fill="#FF1010"/>
</svg>
