<svg width="49" height="51" viewBox="0 0 49 51" fill="none" xmlns="http://www.w3.org/2000/svg">
<rect x="0.5" y="3.5" width="48" height="47" rx="4.5" stroke="#E2E8F0"/>
<g clip-path="url(#clip0_4036_175)">
<path d="M24 21.4414V24.7714" stroke="#808D9E" stroke-width="1.5" stroke-linecap="round"/>
<path d="M24.0204 17C23.1457 16.9997 22.2796 17.1717 21.4714 17.5063C20.6632 17.8409 19.9289 18.3315 19.3104 18.95C18.6919 19.5685 18.2013 20.3028 17.8667 21.111C17.5322 21.9191 17.3601 22.7853 17.3604 23.66V25.76C17.3286 26.5583 17.113 27.3386 16.7304 28.04L15.4632 30.1604C15.2737 30.4409 15.1537 30.7624 15.1131 31.0985C15.0724 31.4346 15.1124 31.7755 15.2297 32.093C15.347 32.4106 15.5381 32.6956 15.7874 32.9246C16.0367 33.1536 16.3369 33.32 16.6632 33.41C21.4445 35 26.6119 35 31.3932 33.41C31.7087 33.3047 31.9964 33.13 32.2353 32.8986C32.4741 32.6672 32.6579 32.3851 32.7731 32.0732C32.8883 31.7612 32.9319 31.4274 32.9008 31.0963C32.8697 30.7653 32.7645 30.4454 32.5932 30.1604L31.32 28.04C30.9386 27.3381 30.7231 26.5581 30.69 25.76V23.66C30.6799 21.8951 29.9737 20.2055 28.7248 18.9584C27.4759 17.7114 25.7853 17.0076 24.0204 17Z" stroke="#808D9E" stroke-width="1.5" stroke-linecap="round"/>
<path d="M27.3299 33.8203C27.3268 34.7025 26.9749 35.5477 26.3511 36.1715C25.7273 36.7953 24.8821 37.1472 23.9999 37.1503C23.1179 37.147 22.2731 36.7945 21.6503 36.1699C21.0258 35.5471 20.6733 34.7023 20.6699 33.8203" stroke="#808D9E" stroke-width="1.5"/>
</g>
<circle cx="39" cy="10" r="10" fill="#7E0FC6"/>
<path d="M40.5687 5.27273V14H38.7235V7.02415H38.6724L36.6738 8.27699V6.64062L38.8343 5.27273H40.5687Z" fill="white"/>
<defs>
<clipPath id="clip0_4036_175">
<rect width="24" height="24" fill="white" transform="translate(12 15)"/>
</clipPath>
</defs>
</svg>
